<?xml version="1.0" encoding="utf-8"?>
<!-- Generator: Adobe Illustrator 16.0.0, SVG Export Plug-In . SVG Version: 6.00 Build 0)  -->
<!DOCTYPE svg PUBLIC "-//W3C//DTD SVG 1.1//EN" "http://www.w3.org/Graphics/SVG/1.1/DTD/svg11.dtd">
<svg version="1.1" id="Layer_1" xmlns="http://www.w3.org/2000/svg" xmlns:xlink="http://www.w3.org/1999/xlink" x="0px" y="0px"
	 width="1400px" height="700px" viewBox="0 0 1400 700" enable-background="new 0 0 1400 700" xml:space="preserve">
<g>
	<path fill="#32C5EE" d="M626.47,329.9h1.485v32.129h-0.9v-31.004h-0.09l-13.635,31.004h-0.989l-13.635-31.004h-0.09v31.004h-0.9
		V329.9h1.485l13.589,30.959h0.091L626.47,329.9z"/>
	<path fill="#32C5EE" d="M632.815,346.055c0.226-4.365,3.105-7.695,8.82-7.695c4.095,0,7.515,1.575,7.649,6.615v14.714
		c0,1.755,1.665,1.574,2.925,1.439v0.9c-0.45,0.045-0.9,0.045-1.35,0.045c-1.306,0-2.476-0.54-2.476-2.295v-3.015h-0.09
		c-0.945,2.97-4.364,5.805-9.18,5.805c-4.635,0-7.739-2.114-7.739-6.255c0-5.715,4.095-6.705,7.965-6.93
		c6.345-0.36,9.044-0.27,9.044-3.735c0-2.745-0.585-6.39-6.749-6.39c-4.86,0-7.605,2.475-7.92,6.795H632.815z M648.385,348.44h-0.09
		c-1.17,1.71-5.31,1.62-8.954,1.845c-3.646,0.225-7.065,1.081-7.065,6.03c0,2.654,1.71,5.355,6.75,5.355
		c6.029,0,9.359-4.41,9.359-8.955V348.44z"/>
	<path fill="#32C5EE" d="M656.98,339.8v17.729c0,3.465,1.71,3.6,3.104,3.6c0.9,0,1.665,0,1.979-0.135v0.9
		c-0.54,0.045-0.81,0.135-2.204,0.135c-2.115,0-3.78-1.035-3.78-4.32V339.8h-4.274v-0.9h4.274v-7.29h0.9v7.29h5.22v0.9H656.98z"/>
	<path fill="#32C5EE" d="M665.35,329.9h0.9v14.715h0.09c0.81-3.555,3.78-6.255,8.324-6.255c4.815,0,8.235,2.925,8.235,8.325v15.344
		h-0.9V346.82c0-5.354-3.375-7.56-7.335-7.56c-5.534,0-8.414,4.5-8.414,9.675v13.094h-0.9V329.9z"/>
	<path fill="#A0CD45" d="M709.854,329.9h1.08l-13.004,18.584v13.544h-0.9v-13.544L684.025,329.9h1.125l12.329,17.64L709.854,329.9z"
		/>
	<path fill="#A0CD45" d="M721.284,338.36c6.705,0,10.395,5.805,10.395,12.104c0,6.345-3.645,12.104-10.439,12.104
		c-6.749,0-10.395-5.76-10.395-12.104C710.845,344.165,714.49,338.36,721.284,338.36z M721.284,361.67
		c6.165,0,9.495-5.311,9.495-11.205c0-5.76-3.33-11.205-9.495-11.205c-6.255,0-9.539,5.445-9.539,11.205
		C711.745,356.359,715.029,361.67,721.284,361.67z"/>
	<path fill="#A0CD45" d="M753.009,354.289h-0.09c-0.99,4.141-5.13,6.48-9.09,6.48c-6.435,0-9.63-5.13-9.63-11.07
		c0-6.209,3.42-11.339,9.944-11.339c4.455,0,7.785,2.925,8.775,6.705h0.09V338.9h0.899v22.363c0,6.346-3.555,9.271-9.629,9.271
		c-4.68,0-8.685-2.07-8.82-7.29h0.9c0.135,4.545,3.734,6.39,7.875,6.39c5.624,0,8.774-2.61,8.774-8.37V354.289z M744.144,339.26
		c-5.984,0-9.044,4.815-9.044,10.439c0,5.714,3.06,10.169,8.685,10.169c5.939,0,9.18-4.59,9.18-10.169
		C752.964,344.39,749.949,339.26,744.144,339.26z"/>
	<path fill="#A0CD45" d="M759.669,334.445h-0.9V329.9h0.9V334.445z M759.669,362.029h-0.9V338.9h0.9V362.029z"/>
</g>
<g opacity="0.9">
	<path fill="#8BC541" d="M912.121,517.406h31.272v17.869h-8.935v8.936h8.935v17.871h-31.272V517.406z"/>
	<path fill="#8BC541" d="M956.797,544.211h-8.936v-8.936h8.936v-8.934h26.805v26.805h-26.805V544.211z"/>
</g>
<g opacity="0.8">
	<path fill="#2CA8E0" d="M726.028,654.665c0.358-1.415,0.567-2.896,0.567-4.425c0-9.615-7.809-17.412-17.429-17.412
		c-11.125,0.017-12.612,8.482-12.612,8.482s-4.675-5.771-12.919-4.779c-7.423,1.479-12.27,8.156-12.27,14.967
		c0,1.172,0.165,2.292,0.473,3.382c-5.566,2.032-9.532,7.384-9.532,13.644c0,8.027,6.507,14.535,14.539,14.535h15.588v-19.601
		h-6.646l13.627-13.302l13.289,13.625h-6.646v19.279h15.584c8.038,0,14.543-6.508,14.543-14.535
		C736.188,662.014,731.91,656.514,726.028,654.665z"/>
</g>
<g>
	<path fill="#EE2D2F" d="M784.906,38.84c-10.092,0-21.136,14.475-24.664,19.499c-3.562-5.065-14.569-19.454-24.631-19.454
		c-12.08,0-21.909,9.829-21.909,21.909c0,12.08,9.829,21.909,21.909,21.909c10.092,0,21.136-14.475,24.664-19.499
		c3.562,5.065,14.569,19.454,24.631,19.454c12.08,0,21.909-9.829,21.909-21.909C806.815,48.669,796.986,38.84,784.906,38.84z
		 M735.611,79.964c-10.571,0-19.17-8.599-19.17-19.17s8.599-19.17,19.17-19.17c9.296,0,20.513,15.551,22.997,19.17
		C756.124,64.414,744.907,79.964,735.611,79.964z M784.906,79.92c-9.296,0-20.513-15.552-22.997-19.17
		c2.483-3.619,13.7-19.17,22.997-19.17c10.571,0,19.17,8.6,19.17,19.17S795.478,79.92,784.906,79.92z"/>
</g>
<polyline fill="none" stroke="#EE2D2F" stroke-width="7.3975" stroke-linecap="round" stroke-linejoin="bevel" stroke-miterlimit="10" points="
	612.117,3 550.231,110.19 621.281,233.705 678.715,233.705 736.149,233.705 807.2,110.19 799.903,97.552 "/>
<polyline opacity="0.8" fill="none" stroke="#2DA9E1" stroke-width="7.3975" stroke-linecap="round" stroke-linejoin="bevel" stroke-miterlimit="10" points="
	621.281,464.408 678.715,464.408 736.149,464.408 807.2,587.922 745.313,695.113 "/>
<polyline opacity="0.9" fill="none" stroke="#8CC541" stroke-width="7.3975" stroke-linecap="round" stroke-linejoin="bevel" stroke-miterlimit="10" points="
	807.255,358.617 751.404,455.354 823.891,579.76 945.971,579.76 "/>
<polyline fill="none" stroke="#FDB522" stroke-width="7.3975" stroke-linecap="round" stroke-linejoin="bevel" stroke-miterlimit="10" points="
	751.404,242.76 807.255,339.496 951.489,339.496 960.171,323.336 "/>
<polyline opacity="0.8" fill="none" stroke="#67308F" stroke-width="7.3975" stroke-linecap="round" stroke-linejoin="bevel" stroke-miterlimit="10" points="
	550.175,358.617 606.025,455.354 533.539,579.76 496.418,579.76 "/>
<polyline opacity="0.7" fill="none" stroke="#F27BA9" stroke-width="7.3975" stroke-linecap="round" stroke-linejoin="bevel" stroke-miterlimit="10" points="
	411.459,118.352 533.539,118.352 606.025,242.76 550.175,339.496 405.94,339.496 398.868,327.248 "/>
<g>
	<g>
		<path fill="#2DA9E1" d="M325.181,63.548l1.23,4.609h0.117l1.23-4.609l6.719-21.797h1.172l6.68,21.797l1.211,4.609h0.117
			l1.27-4.609l5.859-21.797h1.152l-7.656,28.438h-1.191l-7.051-23.711l-0.938-2.832h-0.117l-0.898,2.832l-7.109,23.711h-1.191
			l-7.676-28.438h1.172L325.181,63.548z"/>
		<path fill="#2DA9E1" d="M357.564,53.45c0.664-1.51,1.627-2.686,2.891-3.525c1.263-0.84,2.799-1.26,4.609-1.26
			c2.2,0,3.87,0.697,5.01,2.09c1.139,1.394,1.709,3.587,1.709,6.582v12.852h-1.074V57.298c0-2.773-0.511-4.729-1.533-5.869
			c-1.022-1.139-2.386-1.709-4.092-1.709c-2.24,0-3.968,0.658-5.186,1.973c-1.218,1.315-1.996,3.001-2.334,5.059v13.438h-1.055
			v-10.82h-0.039c0-0.273,0-0.501,0-0.684c0-0.182,0.013-0.364,0.039-0.547V39.72h1.055V53.45z"/>
		<path fill="#2DA9E1" d="M391.666,66.282c-0.729,1.276-1.816,2.314-3.262,3.115s-3.197,1.201-5.254,1.201
			c-1.966,0-3.509-0.537-4.629-1.611c-1.12-1.074-1.68-2.522-1.68-4.346c0-1.771,0.836-3.255,2.51-4.453
			c1.673-1.198,3.766-1.797,6.279-1.797h6.035v-3.086c0-1.758-0.563-3.128-1.689-4.111c-1.126-0.983-2.712-1.475-4.756-1.475
			c-1.914,0-3.454,0.462-4.619,1.387c-1.166,0.925-1.748,2.116-1.748,3.574l-0.879-0.039l-0.039-0.098
			c-0.078-1.641,0.56-3.03,1.914-4.17c1.354-1.139,3.145-1.709,5.371-1.709c2.266,0,4.082,0.573,5.449,1.719
			c1.367,1.146,2.051,2.8,2.051,4.961v10.586c0,0.742,0.042,1.465,0.127,2.168c0.084,0.703,0.225,1.4,0.42,2.09h-1.172
			c-0.169-0.924-0.283-1.618-0.342-2.08c-0.059-0.462-0.088-0.96-0.088-1.494V66.282z M383.15,69.563
			c2.096,0,3.87-0.462,5.322-1.387c1.452-0.924,2.516-2.246,3.193-3.965v-4.746h-5.977c-2.188,0-4.033,0.505-5.537,1.514
			c-1.504,1.009-2.256,2.256-2.256,3.74c0,1.419,0.479,2.582,1.436,3.486C380.289,69.111,381.561,69.563,383.15,69.563z"/>
		<path fill="#2DA9E1" d="M401.705,43.353v5.703h5.195v1.074h-5.195v14.609c0,1.732,0.293,2.966,0.879,3.701
			c0.586,0.736,1.36,1.104,2.324,1.104c0.352,0,0.664-0.013,0.938-0.039c0.273-0.026,0.651-0.071,1.133-0.137l0.195,0.957
			c-0.326,0.104-0.664,0.176-1.016,0.215s-0.749,0.059-1.191,0.059c-1.419,0-2.497-0.462-3.232-1.387
			c-0.736-0.924-1.104-2.415-1.104-4.473V50.13h-3.906v-1.074h3.906v-5.703H401.705z"/>
		<path fill="#2DA9E1" d="M426.353,63.548l1.23,4.609h0.117l1.23-4.609l6.719-21.797h1.172l6.68,21.797l1.211,4.609h0.117
			l1.27-4.609l5.859-21.797h1.152l-7.656,28.438h-1.191l-7.051-23.711l-0.938-2.832h-0.117l-0.898,2.832l-7.109,23.711h-1.191
			l-7.676-28.438h1.172L426.353,63.548z"/>
		<path fill="#2DA9E1" d="M464.478,70.599c-2.487,0-4.587-0.963-6.299-2.891c-1.712-1.927-2.568-4.355-2.568-7.285v-1.25
			c0-3.06,0.85-5.576,2.549-7.549s3.838-2.959,6.416-2.959c2.344,0,4.212,0.771,5.605,2.314c1.393,1.543,2.09,3.649,2.09,6.318
			v1.621h-15.605v0.254v1.25c0,2.578,0.729,4.743,2.188,6.494c1.458,1.751,3.333,2.627,5.625,2.627c1.263,0,2.477-0.234,3.643-0.703
			c1.165-0.469,2.112-1.094,2.842-1.875l0.566,0.82c-0.742,0.82-1.699,1.494-2.871,2.021S466.092,70.599,464.478,70.599z
			 M464.576,49.72c-2.188,0-3.981,0.759-5.381,2.275c-1.4,1.517-2.191,3.435-2.373,5.752l0.059,0.117h14.336V57.22
			c0-2.174-0.593-3.968-1.777-5.381C468.254,50.426,466.633,49.72,464.576,49.72z"/>
		<path fill="#2DA9E1" d="M487.486,70.188V41.751h8.457c3.268,0,6.042,1.172,8.32,3.516c2.278,2.344,3.418,5.332,3.418,8.965v3.477
			c0,3.646-1.14,6.638-3.418,8.975c-2.279,2.337-5.052,3.506-8.32,3.506H487.486z M488.541,42.806v26.328h7.402
			c2.956,0,5.475-1.081,7.559-3.242c2.083-2.161,3.125-4.889,3.125-8.184v-3.535c0-3.255-1.042-5.963-3.125-8.125
			c-2.083-2.161-4.603-3.242-7.559-3.242H488.541z"/>
		<path fill="#2DA9E1" d="M512.037,59.212c0-3.099,0.856-5.631,2.568-7.598c1.712-1.966,3.936-2.949,6.67-2.949
			c2.747,0,4.977,0.983,6.689,2.949c1.712,1.966,2.568,4.499,2.568,7.598v0.82c0,3.112-0.856,5.651-2.568,7.617
			c-1.712,1.966-3.929,2.949-6.65,2.949c-2.748,0-4.98-0.983-6.699-2.949c-1.719-1.966-2.578-4.505-2.578-7.617V59.212z
			 M513.091,60.032c0,2.656,0.742,4.906,2.227,6.748c1.484,1.843,3.483,2.764,5.996,2.764c2.474,0,4.453-0.924,5.938-2.773
			c1.484-1.849,2.227-4.095,2.227-6.738v-0.82c0-2.591-0.749-4.821-2.246-6.689c-1.498-1.868-3.483-2.803-5.957-2.803
			c-2.487,0-4.473,0.935-5.957,2.803c-1.484,1.869-2.227,4.099-2.227,6.689V60.032z"/>
	</g>
</g>
<g opacity="0.8">
	<g>
		<g>
			<path fill="#66318D" d="M479.63,539.674h-12.822l0.865,4.002c0.106,0.498,0.102,0.998,0.045,1.488h9.166v64.695h-50.76v-64.695
				h9.169c-0.056-0.494-0.058-0.992,0.048-1.492l0.865-3.998h-12.824c-1.515,0-2.741,1.23-2.741,2.744v70.186
				c0,1.514,1.227,2.746,2.741,2.746h56.248c1.516,0,2.744-1.232,2.744-2.746v-70.186
				C482.374,540.904,481.146,539.674,479.63,539.674z"/>
			<path fill="#66318D" d="M470.423,559.512h-18.746c-1.518,0-2.744,1.229-2.744,2.742c0,1.516,1.227,2.744,2.744,2.744h18.746
				c1.519,0,2.744-1.229,2.744-2.744C473.168,560.74,471.941,559.512,470.423,559.512z"/>
			<path fill="#66318D" d="M470.423,576.344h-18.746c-1.518,0-2.744,1.229-2.744,2.744c0,1.514,1.227,2.744,2.744,2.744h18.746
				c1.519,0,2.744-1.23,2.744-2.744C473.168,577.572,471.941,576.344,470.423,576.344z"/>
			<path fill="#66318D" d="M430.817,560.156c-1.156,0.977-1.306,2.707-0.329,3.867l4.003,4.744c0.523,0.621,1.29,0.975,2.098,0.975
				c0.066,0,0.133-0.004,0.201-0.008c0.876-0.064,1.67-0.547,2.131-1.295l7.202-11.66c0.796-1.289,0.399-2.979-0.892-3.773
				c-1.289-0.803-2.979-0.398-3.775,0.891l-5.213,8.438l-1.561-1.848C433.706,559.326,431.978,559.178,430.817,560.156z"/>
			<path fill="#66318D" d="M437.39,574.973c-2.273,0-4.117,1.844-4.117,4.115c0,2.273,1.844,4.115,4.117,4.115
				s4.115-1.842,4.115-4.115C441.505,576.816,439.663,574.973,437.39,574.973z"/>
			<path fill="#66318D" d="M470.423,592.807h-18.746c-1.518,0-2.744,1.227-2.744,2.744c0,1.514,1.227,2.744,2.744,2.744h18.746
				c1.519,0,2.744-1.23,2.744-2.744C473.168,594.033,471.941,592.807,470.423,592.807z"/>
			<path fill="#66318D" d="M437.39,591.438c-2.273,0-4.117,1.842-4.117,4.115c0,2.271,1.844,4.113,4.117,4.113
				s4.115-1.842,4.115-4.113C441.505,593.279,439.663,591.438,437.39,591.438z"/>
			<path fill="#66318D" d="M439.864,546.533h23.28c0.571,0,1.11-0.256,1.468-0.699s0.497-1.025,0.374-1.584l-1.927-8.918
				c-0.188-0.869-0.955-1.488-1.842-1.488h-19.424c-0.887,0-1.653,0.619-1.842,1.488l-1.93,8.918
				c-0.117,0.559,0.021,1.141,0.377,1.584C438.758,546.277,439.296,546.533,439.864,546.533z"/>
		</g>
	</g>
</g>
<g>
	<g>
		<g>
			<path fill="#66318D" d="M309.948,584.137l3.501,4.82h-2.087l-3.23-4.629h-0.308v4.629h-1.707v-11.309h2
				c1.494,0,2.573,0.281,3.237,0.842c0.732,0.625,1.099,1.451,1.099,2.477c0,0.801-0.229,1.488-0.688,2.064
				S310.7,583.977,309.948,584.137z M307.824,582.842h0.542c1.616,0,2.424-0.619,2.424-1.854c0-1.158-0.786-1.736-2.358-1.736
				h-0.608V582.842z"/>
			<path fill="#66318D" d="M321.388,579.252h-4.534v2.717h4.402v1.605h-4.402v3.779h4.534v1.604h-6.24v-11.309h6.24V579.252z"/>
			<path fill="#66318D" d="M325.336,584.365v4.592h-1.707v-11.309h1.934c0.947,0,1.663,0.066,2.146,0.197
				c0.488,0.133,0.918,0.381,1.289,0.748c0.649,0.635,0.974,1.436,0.974,2.402c0,1.035-0.347,1.855-1.04,2.461
				s-1.628,0.908-2.805,0.908H325.336z M325.336,582.783h0.637c1.567,0,2.351-0.604,2.351-1.811c0-1.166-0.808-1.75-2.424-1.75
				h-0.564V582.783z"/>
			<path fill="#66318D" d="M331.166,583.252c0-1.592,0.583-2.959,1.75-4.102c1.162-1.143,2.559-1.715,4.189-1.715
				c1.611,0,2.993,0.576,4.146,1.729c1.157,1.152,1.736,2.537,1.736,4.152c0,1.627-0.581,3.006-1.743,4.139
				c-1.167,1.139-2.576,1.707-4.226,1.707c-1.46,0-2.771-0.506-3.933-1.516C331.806,586.527,331.166,585.062,331.166,583.252z
				 M332.887,583.27c0,1.248,0.42,2.275,1.26,3.08c0.835,0.805,1.799,1.209,2.893,1.209c1.187,0,2.188-0.41,3.003-1.23
				c0.815-0.83,1.223-1.84,1.223-3.029c0-1.205-0.403-2.215-1.208-3.029c-0.801-0.82-1.792-1.23-2.974-1.23
				c-1.177,0-2.17,0.41-2.981,1.23C333.292,581.078,332.887,582.078,332.887,583.27z"/>
			<path fill="#66318D" d="M348.964,584.137l3.501,4.82h-2.087l-3.23-4.629h-0.308v4.629h-1.707v-11.309h2
				c1.494,0,2.573,0.281,3.237,0.842c0.732,0.625,1.099,1.451,1.099,2.477c0,0.801-0.229,1.488-0.688,2.064
				S349.716,583.977,348.964,584.137z M346.84,582.842h0.542c1.616,0,2.424-0.619,2.424-1.854c0-1.158-0.786-1.736-2.358-1.736
				h-0.608V582.842z"/>
			<path fill="#66318D" d="M357.152,579.252v9.705h-1.707v-9.705h-2.6v-1.604h6.899v1.604H357.152z"/>
			<path fill="#66318D" d="M374.254,578.252v2.018c-0.986-0.824-2.007-1.236-3.062-1.236c-1.162,0-2.141,0.416-2.937,1.252
				c-0.801,0.83-1.201,1.846-1.201,3.047c0,1.186,0.4,2.188,1.201,3.002c0.801,0.816,1.782,1.225,2.944,1.225
				c0.601,0,1.111-0.098,1.531-0.293c0.234-0.098,0.477-0.23,0.729-0.396s0.517-0.365,0.795-0.6v2.061
				c-0.977,0.555-2.002,0.832-3.076,0.832c-1.616,0-2.996-0.564-4.138-1.691c-1.138-1.139-1.707-2.51-1.707-4.117
				c0-1.439,0.476-2.725,1.428-3.852c1.172-1.383,2.688-2.074,4.548-2.074C372.326,577.428,373.307,577.703,374.254,578.252z"/>
			<path fill="#66318D" d="M383.322,586.211h-4.841l-1.26,2.746h-1.838l5.596-12.02l5.398,12.02h-1.868L383.322,586.211z
				 M382.626,584.605l-1.677-3.844l-1.758,3.844H382.626z"/>
			<path fill="#66318D" d="M391.62,584.137l3.501,4.82h-2.087l-3.23-4.629h-0.308v4.629h-1.707v-11.309h2
				c1.494,0,2.573,0.281,3.237,0.842c0.732,0.625,1.099,1.451,1.099,2.477c0,0.801-0.229,1.488-0.688,2.064
				S392.372,583.977,391.62,584.137z M389.496,582.842h0.542c1.616,0,2.424-0.619,2.424-1.854c0-1.158-0.786-1.736-2.358-1.736
				h-0.608V582.842z"/>
			<path fill="#66318D" d="M396.82,588.957v-11.309h2.373c1.138,0,2.036,0.111,2.695,0.336c0.708,0.221,1.35,0.594,1.926,1.121
				c1.167,1.064,1.75,2.463,1.75,4.197c0,1.738-0.608,3.145-1.824,4.219c-0.61,0.537-1.25,0.91-1.919,1.121
				c-0.625,0.209-1.511,0.314-2.659,0.314H396.82z M398.527,587.354h0.769c0.767,0,1.404-0.082,1.912-0.242
				c0.508-0.172,0.967-0.441,1.377-0.812c0.84-0.768,1.26-1.766,1.26-2.996c0-1.24-0.415-2.246-1.245-3.018
				c-0.747-0.689-1.848-1.033-3.303-1.033h-0.769V587.354z"/>
		</g>
	</g>
</g>
<g>
	<g>
		<g>
			<path fill="none" stroke="#EE2D2F" stroke-width="2.2106" stroke-miterlimit="10" d="M812.169,73.616"/>
		</g>
		<g>
			<g>
				<path fill="#EE2D2F" d="M824.893,50.437v6.807c0,0.971,0.158,1.681,0.476,2.129c0.474,0.649,1.141,0.974,2,0.974
					c0.864,0,1.533-0.324,2.007-0.974c0.317-0.434,0.476-1.144,0.476-2.129v-6.807h1.707v7.28c0,1.191-0.371,2.173-1.113,2.944
					c-0.835,0.859-1.86,1.289-3.076,1.289s-2.239-0.43-3.068-1.289c-0.743-0.771-1.113-1.753-1.113-2.944v-7.28H824.893z"/>
				<path fill="#EE2D2F" d="M834.268,61.745V49.667l8.246,8.628v-7.859h1.707v11.997l-8.247-8.606v7.917H834.268z"/>
				<path fill="#EE2D2F" d="M848.638,50.437v9.705h3.325v1.604h-5.031V50.437H848.638z"/>
				<path fill="#EE2D2F" d="M855.288,50.437v11.309h-1.706V50.437H855.288z"/>
				<path fill="#EE2D2F" d="M857.609,61.745l2.381-12.158l3.882,8.789l4.021-8.789l2.139,12.158h-1.75l-1.092-6.826l-3.347,7.346
					l-3.252-7.354l-1.216,6.833H857.609z"/>
				<path fill="#EE2D2F" d="M874.134,50.437v11.309h-1.706V50.437H874.134z"/>
				<path fill="#EE2D2F" d="M879.971,52.041v9.705h-1.706v-9.705h-2.601v-1.604h6.9v1.604H879.971z"/>
				<path fill="#EE2D2F" d="M890.328,52.041h-4.534v2.717h4.401v1.604h-4.401v3.779h4.534v1.604h-6.24V50.437h6.24V52.041z"/>
				<path fill="#EE2D2F" d="M892.568,61.745V50.437h2.373c1.137,0,2.035,0.112,2.695,0.337c0.707,0.22,1.35,0.593,1.926,1.121
					c1.167,1.064,1.75,2.463,1.75,4.197c0,1.738-0.607,3.145-1.823,4.219c-0.61,0.537-1.25,0.911-1.919,1.121
					c-0.625,0.21-1.512,0.315-2.658,0.315H892.568z M894.274,60.141h0.769c0.767,0,1.404-0.081,1.912-0.242
					c0.508-0.171,0.967-0.442,1.377-0.813c0.84-0.767,1.26-1.765,1.26-2.996c0-1.24-0.415-2.246-1.245-3.018
					c-0.747-0.688-1.849-1.033-3.304-1.033h-0.769V60.141z"/>
				<path fill="#EE2D2F" d="M909.795,57.153v4.592h-1.706V50.437h1.934c0.946,0,1.662,0.066,2.146,0.198
					c0.488,0.132,0.918,0.381,1.289,0.747c0.649,0.635,0.974,1.436,0.974,2.402c0,1.035-0.347,1.855-1.039,2.461
					c-0.694,0.605-1.629,0.908-2.806,0.908H909.795z M909.795,55.571h0.638c1.566,0,2.351-0.603,2.351-1.809
					c0-1.167-0.809-1.75-2.425-1.75h-0.563V55.571z"/>
				<path fill="#EE2D2F" d="M920.02,56.926l3.501,4.819h-2.087l-3.23-4.629h-0.308v4.629h-1.706V50.437h1.999
					c1.494,0,2.573,0.281,3.237,0.842c0.732,0.625,1.099,1.45,1.099,2.476c0,0.801-0.229,1.489-0.688,2.065
					S920.771,56.765,920.02,56.926z M917.896,55.629h0.542c1.616,0,2.424-0.618,2.424-1.853c0-1.157-0.786-1.736-2.357-1.736h-0.608
					V55.629z"/>
				<path fill="#EE2D2F" d="M931.863,58.999h-4.842l-1.26,2.747h-1.838l5.596-12.019l5.398,12.019h-1.868L931.863,58.999z
					 M931.168,57.395l-1.678-3.845l-1.758,3.845H931.168z"/>
				<path fill="#EE2D2F" d="M944.16,51.041v2.018c-0.986-0.825-2.007-1.238-3.062-1.238c-1.162,0-2.142,0.417-2.938,1.252
					c-0.801,0.83-1.201,1.846-1.201,3.047c0,1.187,0.4,2.188,1.201,3.003s1.782,1.223,2.945,1.223c0.6,0,1.11-0.098,1.53-0.293
					c0.234-0.098,0.478-0.229,0.729-0.396c0.252-0.166,0.517-0.366,0.795-0.601v2.062c-0.977,0.555-2.002,0.832-3.076,0.832
					c-1.616,0-2.995-0.564-4.138-1.692c-1.139-1.138-1.707-2.51-1.707-4.116c0-1.44,0.477-2.725,1.428-3.853
					c1.172-1.382,2.688-2.073,4.549-2.073C942.231,50.217,943.213,50.491,944.16,51.041z"/>
				<path fill="#EE2D2F" d="M949.434,52.041v9.705h-1.706v-9.705h-2.601v-1.604h6.9v1.604H949.434z"/>
				<path fill="#EE2D2F" d="M955.257,50.437v11.309h-1.706V50.437H955.257z"/>
				<path fill="#EE2D2F" d="M966.331,51.041v2.018c-0.986-0.825-2.007-1.238-3.062-1.238c-1.162,0-2.142,0.417-2.938,1.252
					c-0.801,0.83-1.201,1.846-1.201,3.047c0,1.187,0.4,2.188,1.201,3.003s1.782,1.223,2.945,1.223c0.6,0,1.11-0.098,1.53-0.293
					c0.234-0.098,0.478-0.229,0.729-0.396c0.252-0.166,0.517-0.366,0.795-0.601v2.062c-0.977,0.555-2.002,0.832-3.076,0.832
					c-1.616,0-2.995-0.564-4.138-1.692c-1.139-1.138-1.707-2.51-1.707-4.116c0-1.44,0.477-2.725,1.428-3.853
					c1.172-1.382,2.688-2.073,4.549-2.073C964.402,50.217,965.384,50.491,966.331,51.041z"/>
				<path fill="#EE2D2F" d="M974.725,52.041h-4.534v2.717h4.401v1.604h-4.401v3.779h4.534v1.604h-6.24V50.437h6.24V52.041z"/>
				<path fill="#EE2D2F" d="M993.101,61.95h-2.146l-0.886-0.908c-0.942,0.605-1.992,0.908-3.149,0.908
					c-1.499,0-2.83-0.508-3.992-1.523c-1.265-1.118-1.896-2.546-1.896-4.285c0-1.704,0.598-3.125,1.795-4.263
					c1.161-1.104,2.533-1.655,4.115-1.655c1.436,0,2.723,0.483,3.86,1.45c1.367,1.162,2.051,2.678,2.051,4.548
					c0,1.465-0.54,2.766-1.618,3.904L993.101,61.95z M988.405,57.265l1.641,1.632c0.723-0.751,1.084-1.681,1.084-2.788
					c0-1.215-0.402-2.232-1.208-3.052c-0.806-0.82-1.807-1.229-3.003-1.229c-1.211,0-2.207,0.41-2.988,1.229
					c-0.786,0.815-1.18,1.847-1.18,3.096c0,1.219,0.405,2.217,1.217,2.993c0.844,0.8,1.809,1.2,2.893,1.2
					c0.737,0,1.403-0.168,2-0.505l-2.659-2.576H988.405z"/>
				<path fill="#EE2D2F" d="M996.704,50.437v6.807c0,0.971,0.158,1.681,0.476,2.129c0.474,0.649,1.141,0.974,2,0.974
					c0.864,0,1.533-0.324,2.007-0.974c0.317-0.434,0.476-1.144,0.476-2.129v-6.807h1.707v7.28c0,1.191-0.371,2.173-1.113,2.944
					c-0.835,0.859-1.86,1.289-3.076,1.289s-2.239-0.43-3.068-1.289c-0.743-0.771-1.113-1.753-1.113-2.944v-7.28H996.704z"/>
				<path fill="#EE2D2F" d="M1012.32,52.041h-4.534v2.717h4.401v1.604h-4.401v3.779h4.534v1.604h-6.24V50.437h6.24V52.041z"/>
				<path fill="#EE2D2F" d="M1020.954,52.114l-1.384,0.82c-0.26-0.449-0.506-0.742-0.74-0.879c-0.244-0.156-0.56-0.234-0.945-0.234
					c-0.474,0-0.866,0.134-1.179,0.403c-0.312,0.264-0.469,0.596-0.469,0.997c0,0.552,0.41,0.997,1.23,1.334l1.128,0.462
					c0.918,0.371,1.59,0.825,2.014,1.359c0.426,0.535,0.638,1.191,0.638,1.968c0,1.041-0.347,1.901-1.04,2.58
					c-0.698,0.684-1.565,1.026-2.6,1.026c-0.982,0-1.793-0.292-2.432-0.875c-0.631-0.583-1.023-1.402-1.18-2.457l1.729-0.381
					c0.078,0.664,0.215,1.123,0.41,1.377c0.352,0.488,0.864,0.732,1.538,0.732c0.532,0,0.974-0.178,1.325-0.534
					s0.527-0.808,0.527-1.354c0-0.22-0.03-0.421-0.091-0.604c-0.062-0.183-0.156-0.351-0.286-0.505
					c-0.129-0.154-0.297-0.298-0.502-0.432c-0.205-0.134-0.449-0.263-0.732-0.384l-1.091-0.454c-1.548-0.654-2.321-1.61-2.321-2.869
					c0-0.849,0.324-1.559,0.974-2.13c0.649-0.576,1.458-0.864,2.425-0.864C1019.203,50.217,1020.222,50.849,1020.954,52.114z"/>
				<path fill="#EE2D2F" d="M1026.638,52.041v9.705h-1.706v-9.705h-2.601v-1.604h6.9v1.604H1026.638z"/>
				<path fill="#EE2D2F" d="M1032.461,50.437v11.309h-1.706V50.437H1032.461z"/>
				<path fill="#EE2D2F" d="M1034.614,56.04c0-1.592,0.583-2.959,1.75-4.102c1.162-1.143,2.559-1.714,4.189-1.714
					c1.611,0,2.993,0.576,4.146,1.729c1.156,1.152,1.735,2.537,1.735,4.153c0,1.626-0.581,3.005-1.743,4.138
					c-1.167,1.138-2.576,1.707-4.227,1.707c-1.46,0-2.771-0.505-3.933-1.516C1035.254,59.316,1034.614,57.851,1034.614,56.04z
					 M1036.335,56.058c0,1.249,0.42,2.276,1.26,3.081c0.836,0.805,1.8,1.208,2.894,1.208c1.187,0,2.188-0.41,3.003-1.229
					c0.815-0.829,1.223-1.839,1.223-3.03c0-1.205-0.402-2.214-1.208-3.029c-0.801-0.82-1.792-1.229-2.974-1.229
					c-1.177,0-2.171,0.41-2.98,1.229C1036.74,53.868,1036.335,54.868,1036.335,56.058z"/>
				<path fill="#EE2D2F" d="M1048.582,61.745V49.667l8.246,8.628v-7.859h1.707v11.997l-8.247-8.606v7.917H1048.582z"/>
				<path fill="#EE2D2F" d="M1067.64,52.114l-1.384,0.82c-0.26-0.449-0.506-0.742-0.74-0.879c-0.244-0.156-0.56-0.234-0.945-0.234
					c-0.474,0-0.866,0.134-1.179,0.403c-0.312,0.264-0.469,0.596-0.469,0.997c0,0.552,0.41,0.997,1.23,1.334l1.128,0.462
					c0.918,0.371,1.59,0.825,2.014,1.359c0.426,0.535,0.638,1.191,0.638,1.968c0,1.041-0.347,1.901-1.04,2.58
					c-0.698,0.684-1.565,1.026-2.6,1.026c-0.982,0-1.793-0.292-2.432-0.875c-0.631-0.583-1.023-1.402-1.18-2.457l1.729-0.381
					c0.078,0.664,0.215,1.123,0.41,1.377c0.352,0.488,0.864,0.732,1.538,0.732c0.532,0,0.974-0.178,1.325-0.534
					s0.527-0.808,0.527-1.354c0-0.22-0.03-0.421-0.091-0.604c-0.062-0.183-0.156-0.351-0.286-0.505
					c-0.129-0.154-0.297-0.298-0.502-0.432c-0.205-0.134-0.449-0.263-0.732-0.384l-1.091-0.454c-1.548-0.654-2.321-1.61-2.321-2.869
					c0-0.849,0.324-1.559,0.974-2.13c0.649-0.576,1.458-0.864,2.425-0.864C1065.889,50.217,1066.907,50.849,1067.64,52.114z"/>
			</g>
		</g>
	</g>
</g>
<g>
	<g>
		<g>
			<g>
				<path fill="#2CA8E0" d="M568.281,658.059l-1.384,0.82c-0.26-0.449-0.506-0.742-0.74-0.879c-0.244-0.156-0.56-0.234-0.945-0.234
					c-0.474,0-0.866,0.135-1.179,0.404c-0.312,0.264-0.469,0.596-0.469,0.996c0,0.553,0.41,0.997,1.23,1.334l1.128,0.462
					c0.918,0.371,1.59,0.825,2.014,1.359c0.426,0.535,0.638,1.191,0.638,1.968c0,1.041-0.347,1.901-1.04,2.58
					c-0.698,0.685-1.565,1.026-2.6,1.026c-0.982,0-1.793-0.292-2.432-0.876c-0.631-0.583-1.023-1.402-1.18-2.457l1.729-0.381
					c0.078,0.664,0.215,1.123,0.41,1.377c0.352,0.488,0.864,0.732,1.538,0.732c0.532,0,0.974-0.178,1.325-0.533
					c0.352-0.356,0.527-0.809,0.527-1.354c0-0.22-0.03-0.421-0.091-0.604c-0.062-0.183-0.156-0.351-0.286-0.504
					c-0.129-0.154-0.297-0.299-0.502-0.432c-0.205-0.135-0.449-0.264-0.732-0.385l-1.091-0.454c-1.548-0.653-2.321-1.61-2.321-2.868
					c0-0.85,0.324-1.56,0.974-2.131c0.649-0.575,1.458-0.863,2.425-0.863C566.53,656.162,567.548,656.795,568.281,658.059z"/>
				<path fill="#2CA8E0" d="M577.158,664.943h-4.842l-1.26,2.747h-1.838l5.596-12.019l5.398,12.019h-1.868L577.158,664.943z
					 M576.462,663.34l-1.678-3.846l-1.758,3.846H576.462z"/>
				<path fill="#2CA8E0" d="M581.31,656.382l3.128,7.837l3.171-7.837h1.868l-5.075,12.158l-4.959-12.158H581.31z"/>
				<path fill="#2CA8E0" d="M597.125,657.986h-4.534v2.717h4.401v1.604h-4.401v3.779h4.534v1.604h-6.24v-11.309h6.24V657.986z"/>
				<path fill="#2CA8E0" d="M604.55,656.382l2.943,7.559l3.076-8.108l2.945,8.108l3.127-7.559h1.854l-5.055,12.026l-2.907-8.013
					l-3.032,8.021l-4.805-12.034H604.55z"/>
				<path fill="#2CA8E0" d="M618.826,661.984c0-1.592,0.583-2.959,1.75-4.102c1.162-1.143,2.559-1.713,4.189-1.713
					c1.611,0,2.993,0.576,4.146,1.729c1.156,1.152,1.735,2.536,1.735,4.152c0,1.626-0.581,3.006-1.743,4.139
					c-1.167,1.137-2.576,1.706-4.227,1.706c-1.46,0-2.771-0.505-3.933-1.517C619.465,665.262,618.826,663.797,618.826,661.984z
					 M620.546,662.003c0,1.249,0.42,2.276,1.26,3.081c0.836,0.805,1.8,1.207,2.894,1.207c1.187,0,2.188-0.409,3.003-1.229
					c0.815-0.83,1.223-1.84,1.223-3.03c0-1.204-0.402-2.214-1.208-3.029c-0.801-0.819-1.792-1.229-2.974-1.229
					c-1.177,0-2.171,0.41-2.98,1.229C620.952,659.812,620.546,660.812,620.546,662.003z"/>
				<path fill="#2CA8E0" d="M636.623,662.871l3.501,4.819h-2.087l-3.23-4.629h-0.308v4.629h-1.706v-11.309h1.999
					c1.494,0,2.573,0.28,3.237,0.843c0.732,0.625,1.099,1.449,1.099,2.475c0,0.801-0.229,1.49-0.688,2.066
					S637.375,662.71,636.623,662.871z M634.499,661.574h0.542c1.616,0,2.424-0.617,2.424-1.853c0-1.157-0.786-1.735-2.357-1.735
					h-0.608V661.574z"/>
				<path fill="#2CA8E0" d="M643.53,660.894l4.401-4.512h2.278l-5.112,5.12l5.142,6.188h-2.285l-4.072-5.032l-0.352,0.352v4.681
					h-1.706v-11.309h1.706V660.894z"/>
			</g>
		</g>
	</g>
</g>
<g>
	<path fill="#FBB41E" d="M958.146,258.785h2.315v13.099c0,0.476,0.385,0.861,0.86,0.861h1.768c0.476,0,0.86-0.385,0.86-0.861
		v-15.661c0-0.475-0.385-0.861-0.86-0.861h-4.942c-0.477,0-0.861,0.386-0.861,0.861v1.701
		C957.286,258.399,957.671,258.785,958.146,258.785z"/>
	<path fill="#FBB41E" d="M945.431,305.506h-6.484l3.445-3.65c1.369-1.462,3.003-3.632,3.003-5.666c0-2.817-2.261-4.71-5.625-4.71
		c-2.024,0-4.157,0.871-5.852,2.39c-0.297,0.266-0.372,0.702-0.181,1.053l0.781,1.432c0.129,0.236,0.359,0.399,0.625,0.439
		c0.267,0.041,0.535-0.045,0.729-0.231c1.105-1.067,2.479-1.705,3.673-1.705c1.038,0,2.274,0.274,2.274,1.579
		c0,0.634-0.586,1.861-1.896,3.171c-0.009,0.009-0.017,0.017-0.025,0.026l-5.864,6.375c-0.146,0.159-0.228,0.367-0.228,0.583v1.477
		c0,0.476,0.385,0.861,0.861,0.861h10.764c0.475,0,0.86-0.385,0.86-0.861v-1.702C946.291,305.892,945.905,305.506,945.431,305.506z"
		/>
	<path fill="#FBB41E" d="M983.665,282.292c-1.669,0-3.283,0.234-4.816,0.664l-4.777-5.859c3.477-3.27,5.655-7.906,5.655-13.044
		c0-9.877-8.036-17.913-17.913-17.913s-17.913,8.035-17.913,17.913c0,5.138,2.179,9.775,5.655,13.044l-4.777,5.859
		c-1.533-0.429-3.147-0.664-4.816-0.664c-9.877,0-17.912,8.035-17.912,17.912s8.035,17.913,17.912,17.913
		c9.228,0,16.846-7.015,17.808-15.991h8.088c0.962,8.976,8.58,15.991,17.808,15.991c9.877,0,17.912-8.036,17.912-17.913
		S993.542,282.292,983.665,282.292z M947.315,264.053c0-7.994,6.504-14.498,14.498-14.498s14.498,6.504,14.498,14.498
		s-6.504,14.498-14.498,14.498S947.315,272.047,947.315,264.053z M951.903,278.965c2.84,1.893,6.248,3,9.91,3s7.07-1.107,9.91-3
		l4.164,5.105c-5.687,2.752-9.704,8.424-10.1,15.056h-7.949c-0.396-6.631-4.414-12.303-10.1-15.056L951.903,278.965z
		 M939.962,314.702c-7.994,0-14.498-6.503-14.498-14.498s6.504-14.498,14.498-14.498s14.498,6.503,14.498,14.498
		S947.956,314.702,939.962,314.702z M983.665,314.702c-7.994,0-14.498-6.503-14.498-14.498s6.504-14.498,14.498-14.498
		s14.498,6.503,14.498,14.498S991.659,314.702,983.665,314.702z"/>
	<path fill="#FBB41E" d="M985.092,298.235l3.7-4.111c0.143-0.158,0.221-0.363,0.221-0.575v-1.208c0-0.476-0.385-0.861-0.861-0.861
		h-9.014c-0.476,0-0.861,0.385-0.861,0.861v1.701c0,0.476,0.386,0.861,0.861,0.861h4.84l-3.287,3.64
		c-0.143,0.159-0.223,0.364-0.223,0.577v1.141c0,0.475,0.385,0.861,0.861,0.861h1.926c2.01,0,3.029,0.711,3.029,2.113
		c0,1.479-1.125,2.361-3.01,2.361c-1.232,0-2.512-0.467-3.505-1.282c-0.2-0.165-0.463-0.229-0.718-0.178
		c-0.254,0.052-0.471,0.216-0.591,0.445l-0.782,1.499c-0.198,0.378-0.088,0.846,0.258,1.096c1.52,1.098,3.564,1.753,5.473,1.753
		c3.793,0,6.341-2.315,6.341-5.761C989.75,300.539,987.95,298.671,985.092,298.235z"/>
</g>
<g>
	<g>
		<g>
			<g>
				<path fill="#FBB41E" d="M1015.641,280.414v4.592h-1.706v-11.309h1.934c0.947,0,1.663,0.066,2.146,0.198
					c0.488,0.132,0.918,0.381,1.289,0.747c0.65,0.635,0.975,1.436,0.975,2.402c0,1.035-0.347,1.855-1.04,2.461
					s-1.628,0.908-2.806,0.908H1015.641z M1015.641,278.832h0.638c1.567,0,2.351-0.603,2.351-1.809c0-1.167-0.808-1.75-2.424-1.75
					h-0.564V278.832z"/>
				<path fill="#FBB41E" d="M1025.865,280.187l3.502,4.819h-2.088l-3.23-4.629h-0.307v4.629h-1.707v-11.309h2
					c1.494,0,2.572,0.281,3.236,0.842c0.732,0.625,1.1,1.45,1.1,2.476c0,0.801-0.23,1.489-0.689,2.065
					S1026.617,280.025,1025.865,280.187z M1023.742,278.89h0.541c1.617,0,2.425-0.618,2.425-1.853c0-1.157-0.786-1.736-2.358-1.736
					h-0.607V278.89z"/>
				<path fill="#FBB41E" d="M1030.246,279.3c0-1.592,0.583-2.959,1.75-4.102c1.162-1.143,2.559-1.714,4.189-1.714
					c1.611,0,2.993,0.576,4.146,1.729c1.157,1.152,1.735,2.537,1.735,4.153c0,1.626-0.58,3.005-1.742,4.138
					c-1.168,1.138-2.576,1.707-4.227,1.707c-1.46,0-2.771-0.505-3.934-1.516C1030.885,282.577,1030.246,281.112,1030.246,279.3z
					 M1031.967,279.318c0,1.249,0.42,2.276,1.26,3.081c0.835,0.805,1.799,1.208,2.893,1.208c1.188,0,2.188-0.41,3.004-1.229
					c0.814-0.829,1.223-1.839,1.223-3.03c0-1.205-0.402-2.214-1.209-3.029c-0.801-0.82-1.791-1.229-2.973-1.229
					c-1.178,0-2.171,0.41-2.981,1.229C1032.372,277.128,1031.967,278.128,1031.967,279.318z"/>
				<path fill="#FBB41E" d="M1052.57,274.301v2.018c-0.986-0.825-2.008-1.238-3.062-1.238c-1.162,0-2.141,0.417-2.937,1.252
					c-0.801,0.83-1.201,1.846-1.201,3.047c0,1.187,0.4,2.188,1.201,3.003s1.782,1.223,2.944,1.223c0.601,0,1.111-0.098,1.531-0.293
					c0.234-0.098,0.477-0.229,0.729-0.396c0.251-0.166,0.516-0.366,0.795-0.601v2.062c-0.977,0.555-2.002,0.832-3.076,0.832
					c-1.617,0-2.996-0.564-4.139-1.692c-1.138-1.138-1.707-2.51-1.707-4.116c0-1.44,0.477-2.725,1.429-3.853
					c1.172-1.382,2.688-2.073,4.548-2.073C1050.641,273.478,1051.623,273.752,1052.57,274.301z"/>
				<path fill="#FBB41E" d="M1060.963,275.301h-4.533v2.717h4.402v1.604h-4.402v3.779h4.533v1.604h-6.24v-11.309h6.24V275.301z"/>
				<path fill="#FBB41E" d="M1063.205,285.006v-11.309h2.373c1.137,0,2.035,0.112,2.695,0.337c0.707,0.22,1.35,0.593,1.926,1.121
					c1.167,1.064,1.75,2.463,1.75,4.197c0,1.738-0.607,3.145-1.823,4.219c-0.61,0.537-1.25,0.911-1.919,1.121
					c-0.625,0.21-1.512,0.315-2.658,0.315H1063.205z M1064.911,283.402h0.769c0.768,0,1.404-0.081,1.912-0.242
					c0.508-0.171,0.967-0.442,1.377-0.813c0.84-0.767,1.26-1.765,1.26-2.996c0-1.24-0.415-2.246-1.245-3.018
					c-0.747-0.688-1.849-1.033-3.304-1.033h-0.769V283.402z"/>
				<path fill="#FBB41E" d="M1075.803,273.697v6.807c0,0.971,0.158,1.681,0.476,2.129c0.474,0.649,1.14,0.974,1.999,0.974
					c0.865,0,1.533-0.324,2.008-0.974c0.316-0.434,0.476-1.144,0.476-2.129v-6.807h1.706v7.28c0,1.191-0.371,2.173-1.113,2.944
					c-0.834,0.859-1.859,1.289-3.076,1.289c-1.215,0-2.238-0.43-3.068-1.289c-0.742-0.771-1.113-1.753-1.113-2.944v-7.28H1075.803z"
					/>
				<path fill="#FBB41E" d="M1089.008,280.187l3.501,4.819h-2.087l-3.23-4.629h-0.308v4.629h-1.706v-11.309h1.999
					c1.494,0,2.573,0.281,3.237,0.842c0.732,0.625,1.099,1.45,1.099,2.476c0,0.801-0.229,1.489-0.688,2.065
					S1089.76,280.025,1089.008,280.187z M1086.884,278.89h0.542c1.616,0,2.424-0.618,2.424-1.853c0-1.157-0.785-1.736-2.357-1.736
					h-0.608V278.89z"/>
				<path fill="#FBB41E" d="M1100.852,282.259h-4.842l-1.26,2.747h-1.838l5.596-12.019l5.397,12.019h-1.868L1100.852,282.259z
					 M1100.155,280.655l-1.677-3.845l-1.758,3.845H1100.155z"/>
				<path fill="#FBB41E" d="M1107.025,273.697v9.705h3.325v1.604h-5.032v-11.309H1107.025z"/>
				<path fill="#FBB41E" d="M1122.245,275.301h-3.94v2.717h3.801v1.604h-3.801v5.383h-1.707v-11.309h5.647V275.301z"/>
				<path fill="#FBB41E" d="M1125.93,273.697v9.705h3.324v1.604h-5.031v-11.309H1125.93z"/>
				<path fill="#FBB41E" d="M1132.235,273.697v6.807c0,0.971,0.159,1.681,0.476,2.129c0.475,0.649,1.141,0.974,2,0.974
					c0.864,0,1.533-0.324,2.007-0.974c0.317-0.434,0.476-1.144,0.476-2.129v-6.807h1.707v7.28c0,1.191-0.371,2.173-1.113,2.944
					c-0.835,0.859-1.86,1.289-3.076,1.289s-2.238-0.43-3.068-1.289c-0.742-0.771-1.113-1.753-1.113-2.944v-7.28H1132.235z"/>
				<path fill="#FBB41E" d="M1147.851,275.301h-4.534v2.717h4.402v1.604h-4.402v3.779h4.534v1.604h-6.24v-11.309h6.24V275.301z"/>
				<path fill="#FBB41E" d="M1150.092,285.006v-12.078l8.247,8.628v-7.859h1.706v11.997l-8.246-8.606v7.917H1150.092z"/>
				<path fill="#FBB41E" d="M1171.215,274.301v2.018c-0.986-0.825-2.007-1.238-3.062-1.238c-1.162,0-2.142,0.417-2.937,1.252
					c-0.801,0.83-1.201,1.846-1.201,3.047c0,1.187,0.4,2.188,1.201,3.003s1.781,1.223,2.943,1.223c0.602,0,1.111-0.098,1.531-0.293
					c0.234-0.098,0.477-0.229,0.729-0.396s0.517-0.366,0.795-0.601v2.062c-0.977,0.555-2.002,0.832-3.076,0.832
					c-1.616,0-2.996-0.564-4.139-1.692c-1.137-1.138-1.706-2.51-1.706-4.116c0-1.44,0.476-2.725,1.429-3.853
					c1.172-1.382,2.688-2.073,4.548-2.073C1169.286,273.478,1170.268,273.752,1171.215,274.301z"/>
				<path fill="#FBB41E" d="M1175.653,280.121l-3.691-6.423h1.963l2.585,4.519l2.594-4.519h1.963l-3.707,6.423v4.885h-1.706V280.121
					z"/>
			</g>
		</g>
	</g>
	<path fill="#F27BA9" d="M988.146,286.434"/>
</g>
<g>
	<g>
		<g>
			<g>
				<path fill="#8BC541" d="M1007.037,531.729v2.018c-0.986-0.826-2.007-1.238-3.062-1.238c-1.162,0-2.142,0.418-2.938,1.252
					c-0.801,0.83-1.201,1.846-1.201,3.047c0,1.188,0.4,2.188,1.201,3.004c0.801,0.814,1.782,1.223,2.945,1.223
					c0.6,0,1.11-0.098,1.53-0.293c0.234-0.098,0.478-0.229,0.729-0.396c0.252-0.164,0.517-0.365,0.795-0.6v2.062
					c-0.977,0.553-2.002,0.83-3.076,0.83c-1.616,0-2.995-0.564-4.138-1.691c-1.139-1.137-1.707-2.51-1.707-4.117
					c0-1.439,0.477-2.725,1.428-3.852c1.172-1.381,2.688-2.072,4.549-2.072C1005.108,530.904,1006.09,531.178,1007.037,531.729z"/>
				<path fill="#8BC541" d="M1008.554,536.727c0-1.592,0.583-2.959,1.75-4.102c1.162-1.143,2.559-1.715,4.189-1.715
					c1.611,0,2.993,0.578,4.146,1.729c1.156,1.154,1.735,2.537,1.735,4.154c0,1.625-0.581,3.006-1.743,4.137
					c-1.167,1.139-2.576,1.707-4.227,1.707c-1.46,0-2.771-0.506-3.933-1.516C1009.193,540.004,1008.554,538.539,1008.554,536.727z
					 M1010.274,536.744c0,1.25,0.42,2.277,1.26,3.082c0.836,0.805,1.8,1.207,2.894,1.207c1.187,0,2.188-0.41,3.003-1.229
					c0.815-0.83,1.223-1.84,1.223-3.031c0-1.205-0.402-2.215-1.208-3.029c-0.801-0.818-1.792-1.229-2.974-1.229
					c-1.177,0-2.171,0.41-2.98,1.229C1010.68,534.555,1010.274,535.555,1010.274,536.744z"/>
				<path fill="#8BC541" d="M1022.521,542.432v-12.078l8.246,8.629v-7.859h1.707v11.998l-8.247-8.607v7.918H1022.521z"/>
				<path fill="#8BC541" d="M1043.644,531.729v2.018c-0.986-0.826-2.007-1.238-3.062-1.238c-1.162,0-2.142,0.418-2.938,1.252
					c-0.801,0.83-1.201,1.846-1.201,3.047c0,1.188,0.4,2.188,1.201,3.004c0.801,0.814,1.782,1.223,2.945,1.223
					c0.6,0,1.11-0.098,1.53-0.293c0.234-0.098,0.478-0.229,0.729-0.396c0.252-0.164,0.517-0.365,0.795-0.6v2.062
					c-0.977,0.553-2.002,0.83-3.076,0.83c-1.616,0-2.995-0.564-4.138-1.691c-1.139-1.137-1.707-2.51-1.707-4.117
					c0-1.439,0.477-2.725,1.428-3.852c1.172-1.381,2.688-2.072,4.549-2.072C1041.715,530.904,1042.696,531.178,1043.644,531.729z"/>
				<path fill="#8BC541" d="M1052.038,532.727h-4.534v2.719h4.401v1.604h-4.401v3.779h4.534v1.604h-6.24v-11.309h6.24V532.727z"/>
				<path fill="#8BC541" d="M1055.984,537.84v4.592h-1.706v-11.309h1.934c0.946,0,1.662,0.066,2.146,0.197
					c0.488,0.133,0.918,0.381,1.289,0.748c0.649,0.635,0.974,1.436,0.974,2.402c0,1.035-0.347,1.855-1.039,2.461
					c-0.694,0.605-1.629,0.908-2.806,0.908H1055.984z M1055.984,536.258h0.638c1.566,0,2.351-0.604,2.351-1.809
					c0-1.168-0.809-1.752-2.425-1.752h-0.563V536.258z"/>
				<path fill="#8BC541" d="M1065.499,532.727v9.705h-1.706v-9.705h-2.601v-1.604h6.9v1.604H1065.499z"/>
				<path fill="#8BC541" d="M1071.322,531.123v6.807c0,0.971,0.158,1.682,0.476,2.131c0.474,0.648,1.141,0.973,2,0.973
					c0.864,0,1.533-0.324,2.007-0.973c0.317-0.436,0.476-1.145,0.476-2.131v-6.807h1.707v7.281c0,1.191-0.371,2.172-1.113,2.943
					c-0.835,0.859-1.86,1.289-3.076,1.289s-2.239-0.43-3.068-1.289c-0.743-0.771-1.113-1.752-1.113-2.943v-7.281H1071.322z"/>
				<path fill="#8BC541" d="M1086.856,539.686h-4.842l-1.26,2.746h-1.838l5.596-12.02l5.398,12.02h-1.868L1086.856,539.686z
					 M1086.161,538.082l-1.678-3.846l-1.758,3.846H1086.161z"/>
				<path fill="#8BC541" d="M1093.031,531.123v9.705h3.325v1.604h-5.031v-11.309H1093.031z"/>
				<path fill="#8BC541" d="M1104.311,531.123v6.807c0,0.971,0.158,1.682,0.476,2.131c0.474,0.648,1.141,0.973,2,0.973
					c0.864,0,1.533-0.324,2.007-0.973c0.317-0.436,0.476-1.145,0.476-2.131v-6.807h1.707v7.281c0,1.191-0.371,2.172-1.113,2.943
					c-0.835,0.859-1.86,1.289-3.076,1.289s-2.239-0.43-3.068-1.289c-0.743-0.771-1.113-1.752-1.113-2.943v-7.281H1104.311z"/>
				<path fill="#8BC541" d="M1113.686,542.432v-12.078l8.246,8.629v-7.859h1.707v11.998l-8.247-8.607v7.918H1113.686z"/>
				<path fill="#8BC541" d="M1126.349,542.432v-11.309h2.373c1.137,0,2.035,0.113,2.695,0.338c0.707,0.219,1.35,0.592,1.926,1.119
					c1.167,1.066,1.75,2.465,1.75,4.197c0,1.738-0.607,3.145-1.823,4.219c-0.61,0.537-1.25,0.912-1.919,1.121
					c-0.625,0.211-1.512,0.314-2.658,0.314H1126.349z M1128.055,540.828h0.769c0.767,0,1.404-0.08,1.912-0.242
					c0.508-0.17,0.967-0.441,1.377-0.812c0.84-0.766,1.26-1.766,1.26-2.996c0-1.24-0.415-2.246-1.245-3.018
					c-0.747-0.688-1.849-1.033-3.304-1.033h-0.769V540.828z"/>
				<path fill="#8BC541" d="M1143.48,532.727h-4.534v2.719h4.401v1.604h-4.401v3.779h4.534v1.604h-6.24v-11.309h6.24V532.727z"/>
				<path fill="#8BC541" d="M1149.552,537.613l3.501,4.818h-2.087l-3.23-4.629h-0.308v4.629h-1.706v-11.309h1.999
					c1.494,0,2.573,0.281,3.237,0.842c0.732,0.627,1.099,1.451,1.099,2.477c0,0.801-0.229,1.49-0.688,2.064
					C1150.909,537.084,1150.304,537.451,1149.552,537.613z M1147.428,536.316h0.542c1.616,0,2.424-0.617,2.424-1.854
					c0-1.156-0.786-1.736-2.357-1.736h-0.608V536.316z"/>
				<path fill="#8BC541" d="M1161.146,532.801l-1.384,0.82c-0.26-0.449-0.506-0.742-0.74-0.879c-0.244-0.156-0.56-0.234-0.945-0.234
					c-0.474,0-0.866,0.135-1.179,0.402c-0.312,0.266-0.469,0.598-0.469,0.998c0,0.551,0.41,0.996,1.23,1.334l1.128,0.461
					c0.918,0.371,1.59,0.824,2.014,1.359c0.426,0.535,0.638,1.191,0.638,1.969c0,1.041-0.347,1.9-1.04,2.58
					c-0.698,0.684-1.565,1.025-2.6,1.025c-0.982,0-1.793-0.291-2.432-0.875c-0.631-0.584-1.023-1.402-1.18-2.457l1.729-0.381
					c0.078,0.664,0.215,1.123,0.41,1.377c0.352,0.488,0.864,0.732,1.538,0.732c0.532,0,0.974-0.178,1.325-0.535
					c0.352-0.355,0.527-0.807,0.527-1.354c0-0.219-0.03-0.42-0.091-0.604c-0.062-0.184-0.156-0.352-0.286-0.506
					c-0.129-0.152-0.297-0.297-0.502-0.432c-0.205-0.133-0.449-0.262-0.732-0.383l-1.091-0.455
					c-1.548-0.652-2.321-1.609-2.321-2.869c0-0.848,0.324-1.559,0.974-2.129c0.649-0.576,1.458-0.863,2.425-0.863
					C1159.396,530.904,1160.414,531.537,1161.146,532.801z"/>
				<path fill="#8BC541" d="M1166.829,532.727v9.705h-1.706v-9.705h-2.601v-1.604h6.9v1.604H1166.829z"/>
				<path fill="#8BC541" d="M1176.974,539.686h-4.842l-1.26,2.746h-1.838l5.596-12.02l5.398,12.02h-1.868L1176.974,539.686z
					 M1176.278,538.082l-1.678-3.846l-1.758,3.846H1176.278z"/>
				<path fill="#8BC541" d="M1181.442,542.432v-12.078l8.246,8.629v-7.859h1.707v11.998l-8.247-8.607v7.918H1181.442z"/>
				<path fill="#8BC541" d="M1194.105,542.432v-11.309h2.373c1.137,0,2.035,0.113,2.695,0.338c0.707,0.219,1.35,0.592,1.926,1.119
					c1.167,1.066,1.75,2.465,1.75,4.197c0,1.738-0.607,3.145-1.823,4.219c-0.61,0.537-1.25,0.912-1.919,1.121
					c-0.625,0.211-1.512,0.314-2.658,0.314H1194.105z M1195.812,540.828h0.769c0.767,0,1.404-0.08,1.912-0.242
					c0.508-0.17,0.967-0.441,1.377-0.812c0.84-0.766,1.26-1.766,1.26-2.996c0-1.24-0.415-2.246-1.245-3.018
					c-0.747-0.688-1.849-1.033-3.304-1.033h-0.769V540.828z"/>
				<path fill="#8BC541" d="M1206.703,531.123v11.309h-1.706v-11.309H1206.703z"/>
				<path fill="#8BC541" d="M1209.421,542.432v-12.078l8.246,8.629v-7.859h1.707v11.998l-8.247-8.607v7.918H1209.421z"/>
				<path fill="#8BC541" d="M1228.016,536.543h4.674v0.373c0,0.85-0.101,1.604-0.301,2.256c-0.195,0.607-0.525,1.172-0.988,1.699
					c-1.051,1.184-2.386,1.773-4.007,1.773c-1.582,0-2.937-0.572-4.065-1.715c-1.127-1.146-1.691-2.523-1.691-4.131
					c0-1.641,0.573-3.031,1.721-4.174c1.147-1.146,2.544-1.721,4.189-1.721c0.884,0,1.709,0.18,2.477,0.539
					c0.732,0.359,1.452,0.943,2.16,1.752l-1.216,1.166c-0.928-1.236-2.058-1.854-3.392-1.854c-1.196,0-2.199,0.412-3.01,1.238
					c-0.811,0.811-1.216,1.826-1.216,3.047c0,1.26,0.451,2.297,1.354,3.111c0.845,0.758,1.761,1.137,2.747,1.137
					c0.84,0,1.594-0.283,2.263-0.848c0.669-0.57,1.043-1.252,1.121-2.047h-2.82V536.543z"/>
			</g>
		</g>
	</g>
</g>
<g>
	<g>
		<g>
			<g>
				<path fill="#F17AA8" d="M131.874,273.875l-1.384,0.82c-0.259-0.449-0.505-0.742-0.74-0.879
					c-0.244-0.156-0.559-0.234-0.945-0.234c-0.474,0-0.867,0.134-1.179,0.403c-0.312,0.264-0.469,0.596-0.469,0.997
					c0,0.552,0.41,0.997,1.23,1.334l1.128,0.462c0.918,0.371,1.589,0.825,2.014,1.359c0.425,0.535,0.637,1.191,0.637,1.968
					c0,1.041-0.347,1.901-1.04,2.58c-0.698,0.684-1.565,1.026-2.6,1.026c-0.981,0-1.792-0.292-2.432-0.875
					c-0.63-0.583-1.023-1.402-1.179-2.457l1.729-0.381c0.078,0.664,0.215,1.123,0.41,1.377c0.352,0.488,0.864,0.732,1.538,0.732
					c0.532,0,0.974-0.178,1.326-0.534s0.527-0.808,0.527-1.354c0-0.22-0.031-0.421-0.091-0.604
					c-0.062-0.183-0.157-0.351-0.286-0.505s-0.296-0.298-0.501-0.432c-0.205-0.134-0.449-0.263-0.732-0.384l-1.091-0.454
					c-1.548-0.654-2.322-1.61-2.322-2.869c0-0.849,0.325-1.559,0.974-2.13c0.649-0.576,1.458-0.864,2.424-0.864
					C130.124,271.978,131.142,272.61,131.874,273.875z"/>
				<path fill="#F17AA8" d="M137.558,273.801v9.705h-1.707v-9.705h-2.6v-1.604h6.899v1.604H137.558z"/>
				<path fill="#F17AA8" d="M143.38,272.197v6.807c0,0.971,0.159,1.681,0.476,2.129c0.474,0.649,1.14,0.974,2,0.974
					c0.864,0,1.533-0.324,2.007-0.974c0.317-0.434,0.476-1.144,0.476-2.129v-6.807h1.707v7.28c0,1.191-0.371,2.173-1.113,2.944
					c-0.835,0.859-1.86,1.289-3.076,1.289s-2.239-0.43-3.069-1.289c-0.742-0.771-1.113-1.753-1.113-2.944v-7.28H143.38z"/>
				<path fill="#F17AA8" d="M152.755,283.506v-11.309h2.373c1.138,0,2.036,0.112,2.695,0.337c0.708,0.22,1.35,0.593,1.926,1.121
					c1.167,1.064,1.75,2.463,1.75,4.197c0,1.738-0.608,3.145-1.824,4.219c-0.61,0.537-1.25,0.911-1.919,1.121
					c-0.625,0.21-1.511,0.315-2.659,0.315H152.755z M154.462,281.902h0.769c0.767,0,1.404-0.081,1.912-0.242
					c0.508-0.171,0.967-0.442,1.377-0.813c0.84-0.767,1.26-1.765,1.26-2.996c0-1.24-0.415-2.246-1.245-3.018
					c-0.747-0.688-1.848-1.033-3.303-1.033h-0.769V281.902z"/>
				<path fill="#F17AA8" d="M165.36,278.621l-3.691-6.423h1.963l2.585,4.519l2.593-4.519h1.963l-3.706,6.423v4.885h-1.707V278.621z"
					/>
				<path fill="#F17AA8" d="M180.536,278.687l3.501,4.819h-2.087l-3.23-4.629h-0.308v4.629h-1.707v-11.309h2
					c1.494,0,2.573,0.281,3.237,0.842c0.732,0.625,1.099,1.45,1.099,2.476c0,0.801-0.229,1.489-0.688,2.065
					S181.288,278.525,180.536,278.687z M178.412,277.39h0.542c1.616,0,2.424-0.618,2.424-1.853c0-1.157-0.786-1.736-2.358-1.736
					h-0.608V277.39z"/>
				<path fill="#F17AA8" d="M191.977,273.801h-4.534v2.717h4.402v1.604h-4.402v3.779h4.534v1.604h-6.24v-11.309h6.24V273.801z"/>
				<path fill="#F17AA8" d="M200.612,273.875l-1.384,0.82c-0.259-0.449-0.505-0.742-0.74-0.879
					c-0.244-0.156-0.559-0.234-0.945-0.234c-0.474,0-0.867,0.134-1.179,0.403c-0.312,0.264-0.469,0.596-0.469,0.997
					c0,0.552,0.41,0.997,1.23,1.334l1.128,0.462c0.918,0.371,1.589,0.825,2.014,1.359c0.425,0.535,0.637,1.191,0.637,1.968
					c0,1.041-0.347,1.901-1.04,2.58c-0.698,0.684-1.565,1.026-2.6,1.026c-0.981,0-1.792-0.292-2.432-0.875
					c-0.63-0.583-1.023-1.402-1.179-2.457l1.729-0.381c0.078,0.664,0.215,1.123,0.41,1.377c0.352,0.488,0.864,0.732,1.538,0.732
					c0.532,0,0.974-0.178,1.326-0.534s0.527-0.808,0.527-1.354c0-0.22-0.031-0.421-0.091-0.604
					c-0.062-0.183-0.157-0.351-0.286-0.505s-0.296-0.298-0.501-0.432c-0.205-0.134-0.449-0.263-0.732-0.384l-1.091-0.454
					c-1.548-0.654-2.322-1.61-2.322-2.869c0-0.849,0.325-1.559,0.974-2.13c0.649-0.576,1.458-0.864,2.424-0.864
					C198.861,271.978,199.879,272.61,200.612,273.875z"/>
				<path fill="#F17AA8" d="M202.399,277.8c0-1.592,0.583-2.959,1.75-4.102c1.162-1.143,2.559-1.714,4.189-1.714
					c1.611,0,2.993,0.576,4.146,1.729c1.157,1.152,1.736,2.537,1.736,4.153c0,1.626-0.581,3.005-1.743,4.138
					c-1.167,1.138-2.576,1.707-4.226,1.707c-1.46,0-2.771-0.505-3.933-1.516C203.039,281.077,202.399,279.612,202.399,277.8z
					 M204.12,277.818c0,1.249,0.42,2.276,1.26,3.081c0.835,0.805,1.799,1.208,2.893,1.208c1.187,0,2.188-0.41,3.003-1.229
					c0.815-0.829,1.223-1.839,1.223-3.03c0-1.205-0.403-2.214-1.208-3.029c-0.801-0.82-1.792-1.229-2.974-1.229
					c-1.177,0-2.17,0.41-2.981,1.229C204.525,275.628,204.12,276.628,204.12,277.818z"/>
				<path fill="#F17AA8" d="M218.073,272.197v6.807c0,0.971,0.159,1.681,0.476,2.129c0.474,0.649,1.14,0.974,2,0.974
					c0.864,0,1.533-0.324,2.007-0.974c0.317-0.434,0.476-1.144,0.476-2.129v-6.807h1.707v7.28c0,1.191-0.371,2.173-1.113,2.944
					c-0.835,0.859-1.86,1.289-3.076,1.289s-2.239-0.43-3.069-1.289c-0.742-0.771-1.113-1.753-1.113-2.944v-7.28H218.073z"/>
				<path fill="#F17AA8" d="M231.278,278.687l3.501,4.819h-2.087l-3.23-4.629h-0.308v4.629h-1.707v-11.309h2
					c1.494,0,2.573,0.281,3.237,0.842c0.732,0.625,1.099,1.45,1.099,2.476c0,0.801-0.229,1.489-0.688,2.065
					S232.03,278.525,231.278,278.687z M229.154,277.39h0.542c1.616,0,2.424-0.618,2.424-1.853c0-1.157-0.786-1.736-2.358-1.736
					h-0.608V277.39z"/>
				<path fill="#F17AA8" d="M244.579,272.801v2.018c-0.986-0.825-2.007-1.238-3.062-1.238c-1.162,0-2.141,0.417-2.937,1.252
					c-0.801,0.83-1.201,1.846-1.201,3.047c0,1.187,0.4,2.188,1.201,3.003s1.782,1.223,2.944,1.223c0.601,0,1.111-0.098,1.531-0.293
					c0.234-0.098,0.477-0.229,0.729-0.396s0.517-0.366,0.795-0.601v2.062c-0.977,0.555-2.002,0.832-3.076,0.832
					c-1.616,0-2.996-0.564-4.138-1.692c-1.138-1.138-1.707-2.51-1.707-4.116c0-1.44,0.476-2.725,1.428-3.853
					c1.172-1.382,2.688-2.073,4.548-2.073C242.65,271.978,243.632,272.252,244.579,272.801z"/>
				<path fill="#F17AA8" d="M252.973,273.801h-4.534v2.717h4.402v1.604h-4.402v3.779h4.534v1.604h-6.24v-11.309h6.24V273.801z"/>
				<path fill="#F17AA8" d="M266.237,273.875l-1.384,0.82c-0.259-0.449-0.505-0.742-0.74-0.879
					c-0.244-0.156-0.559-0.234-0.945-0.234c-0.474,0-0.867,0.134-1.179,0.403c-0.312,0.264-0.469,0.596-0.469,0.997
					c0,0.552,0.41,0.997,1.23,1.334l1.128,0.462c0.918,0.371,1.589,0.825,2.014,1.359c0.425,0.535,0.637,1.191,0.637,1.968
					c0,1.041-0.347,1.901-1.04,2.58c-0.698,0.684-1.565,1.026-2.6,1.026c-0.981,0-1.792-0.292-2.432-0.875
					c-0.63-0.583-1.023-1.402-1.179-2.457l1.729-0.381c0.078,0.664,0.215,1.123,0.41,1.377c0.352,0.488,0.864,0.732,1.538,0.732
					c0.532,0,0.974-0.178,1.326-0.534s0.527-0.808,0.527-1.354c0-0.22-0.031-0.421-0.091-0.604
					c-0.062-0.183-0.157-0.351-0.286-0.505s-0.296-0.298-0.501-0.432c-0.205-0.134-0.449-0.263-0.732-0.384l-1.091-0.454
					c-1.548-0.654-2.322-1.61-2.322-2.869c0-0.849,0.325-1.559,0.974-2.13c0.649-0.576,1.458-0.864,2.424-0.864
					C264.486,271.978,265.504,272.61,266.237,273.875z"/>
				<path fill="#F17AA8" d="M270.294,272.197v6.807c0,0.971,0.159,1.681,0.476,2.129c0.474,0.649,1.14,0.974,2,0.974
					c0.864,0,1.533-0.324,2.007-0.974c0.317-0.434,0.476-1.144,0.476-2.129v-6.807h1.707v7.28c0,1.191-0.371,2.173-1.113,2.944
					c-0.835,0.859-1.86,1.289-3.076,1.289s-2.239-0.43-3.069-1.289c-0.742-0.771-1.113-1.753-1.113-2.944v-7.28H270.294z"/>
				<path fill="#F17AA8" d="M285.485,277.617h4.673v0.374c0,0.85-0.1,1.602-0.3,2.256c-0.195,0.605-0.525,1.172-0.989,1.699
					c-1.05,1.182-2.385,1.772-4.006,1.772c-1.582,0-2.937-0.571-4.065-1.714c-1.128-1.147-1.692-2.524-1.692-4.131
					c0-1.641,0.574-3.032,1.721-4.175c1.147-1.147,2.544-1.721,4.189-1.721c0.884,0,1.709,0.18,2.476,0.54
					c0.732,0.36,1.453,0.944,2.161,1.753l-1.216,1.165c-0.928-1.235-2.058-1.853-3.391-1.853c-1.196,0-2.2,0.413-3.01,1.238
					c-0.811,0.811-1.216,1.826-1.216,3.047c0,1.26,0.452,2.297,1.355,3.113c0.845,0.757,1.76,1.135,2.747,1.135
					c0.84,0,1.594-0.282,2.263-0.848c0.669-0.569,1.042-1.251,1.121-2.045h-2.82V277.617z"/>
				<path fill="#F17AA8" d="M298.119,277.617h4.673v0.374c0,0.85-0.1,1.602-0.3,2.256c-0.195,0.605-0.525,1.172-0.989,1.699
					c-1.05,1.182-2.385,1.772-4.006,1.772c-1.582,0-2.937-0.571-4.065-1.714c-1.128-1.147-1.692-2.524-1.692-4.131
					c0-1.641,0.574-3.032,1.721-4.175c1.147-1.147,2.544-1.721,4.189-1.721c0.884,0,1.709,0.18,2.476,0.54
					c0.732,0.36,1.453,0.944,2.161,1.753l-1.216,1.165c-0.928-1.235-2.058-1.853-3.391-1.853c-1.196,0-2.2,0.413-3.01,1.238
					c-0.811,0.811-1.216,1.826-1.216,3.047c0,1.26,0.452,2.297,1.355,3.113c0.845,0.757,1.76,1.135,2.747,1.135
					c0.84,0,1.594-0.282,2.263-0.848c0.669-0.569,1.042-1.251,1.121-2.045h-2.82V277.617z"/>
				<path fill="#F17AA8" d="M311.178,273.801h-4.534v2.717h4.402v1.604h-4.402v3.779h4.534v1.604h-6.24v-11.309h6.24V273.801z"/>
				<path fill="#F17AA8" d="M319.813,273.875l-1.384,0.82c-0.259-0.449-0.505-0.742-0.74-0.879
					c-0.244-0.156-0.559-0.234-0.945-0.234c-0.474,0-0.867,0.134-1.179,0.403c-0.312,0.264-0.469,0.596-0.469,0.997
					c0,0.552,0.41,0.997,1.23,1.334l1.128,0.462c0.918,0.371,1.589,0.825,2.014,1.359c0.425,0.535,0.637,1.191,0.637,1.968
					c0,1.041-0.347,1.901-1.04,2.58c-0.698,0.684-1.565,1.026-2.6,1.026c-0.981,0-1.792-0.292-2.432-0.875
					c-0.63-0.583-1.023-1.402-1.179-2.457l1.729-0.381c0.078,0.664,0.215,1.123,0.41,1.377c0.352,0.488,0.864,0.732,1.538,0.732
					c0.532,0,0.974-0.178,1.326-0.534s0.527-0.808,0.527-1.354c0-0.22-0.031-0.421-0.091-0.604
					c-0.062-0.183-0.157-0.351-0.286-0.505s-0.296-0.298-0.501-0.432c-0.205-0.134-0.449-0.263-0.732-0.384l-1.091-0.454
					c-1.548-0.654-2.322-1.61-2.322-2.869c0-0.849,0.325-1.559,0.974-2.13c0.649-0.576,1.458-0.864,2.424-0.864
					C318.063,271.978,319.081,272.61,319.813,273.875z"/>
				<path fill="#F17AA8" d="M325.497,273.801v9.705h-1.707v-9.705h-2.6v-1.604h6.899v1.604H325.497z"/>
				<path fill="#F17AA8" d="M331.32,272.197v11.309h-1.707v-11.309H331.32z"/>
				<path fill="#F17AA8" d="M333.473,277.8c0-1.592,0.583-2.959,1.75-4.102c1.162-1.143,2.559-1.714,4.189-1.714
					c1.611,0,2.993,0.576,4.146,1.729c1.157,1.152,1.736,2.537,1.736,4.153c0,1.626-0.581,3.005-1.743,4.138
					c-1.167,1.138-2.576,1.707-4.226,1.707c-1.46,0-2.771-0.505-3.933-1.516C334.113,281.077,333.473,279.612,333.473,277.8z
					 M335.194,277.818c0,1.249,0.42,2.276,1.26,3.081c0.835,0.805,1.799,1.208,2.893,1.208c1.187,0,2.188-0.41,3.003-1.229
					c0.815-0.829,1.223-1.839,1.223-3.03c0-1.205-0.403-2.214-1.208-3.029c-0.801-0.82-1.792-1.229-2.974-1.229
					c-1.177,0-2.17,0.41-2.981,1.229C335.6,275.628,335.194,276.628,335.194,277.818z"/>
				<path fill="#F17AA8" d="M347.44,283.506v-12.078l8.247,8.628v-7.859h1.707v11.997l-8.247-8.606v7.917H347.44z"/>
			</g>
		</g>
	</g>
	<path fill="#F27BA9" d="M281.182,200.938"/>
</g>
<g opacity="0.7">
	<g>
		<g id="Icons_1_">
			<g>
				<path fill="#F17AA8" d="M450.479,260.374l-3.383-5.755c-0.113-0.192-0.117-0.427-0.011-0.621l3.231-5.841
					c0.138-0.247,0.091-0.554-0.111-0.753c-0.203-0.197-0.507-0.234-0.751-0.092l-5.757,3.39c-0.188,0.112-0.421,0.114-0.614,0.008
					l-5.843-3.229c-0.25-0.138-0.556-0.09-0.748,0.111c-0.192,0.204-0.235,0.511-0.088,0.751l3.382,5.756
					c0.111,0.192,0.117,0.426,0.009,0.621l-3.231,5.844c-0.137,0.247-0.09,0.554,0.113,0.751s0.509,0.236,0.753,0.091l5.755-3.385
					c0.185-0.111,0.426-0.114,0.613-0.007l5.841,3.228c0.246,0.136,0.556,0.091,0.751-0.111
					C450.586,260.928,450.62,260.618,450.479,260.374z"/>
				<path fill="#F17AA8" d="M377.185,250.929c0.185,0.122,0.286,0.332,0.273,0.553l-0.325,5.896
					c-0.005,0.116,0.067,0.226,0.179,0.262c0.111,0.039,0.234-0.003,0.299-0.104l3.28-4.907c0.123-0.185,0.333-0.292,0.554-0.276
					l5.897,0.325c0.12,0.005,0.226-0.067,0.266-0.18c0.033-0.111-0.005-0.233-0.107-0.302l-4.905-3.277
					c-0.187-0.125-0.291-0.335-0.278-0.556l0.325-5.898c0.005-0.116-0.065-0.224-0.177-0.26c-0.114-0.036-0.236,0.005-0.299,0.102
					l-3.286,4.909c-0.122,0.183-0.333,0.289-0.553,0.279l-5.895-0.328c-0.117-0.005-0.224,0.065-0.26,0.177
					c-0.039,0.112,0.005,0.236,0.104,0.302L377.185,250.929z"/>
				<path fill="#F17AA8" d="M424.086,245.769l-2.165,4.876c-0.037,0.081-0.013,0.177,0.058,0.232
					c0.059,0.056,0.163,0.06,0.238,0.007l4.335-3.096c0.18-0.127,0.416-0.152,0.617-0.062l4.873,2.162
					c0.081,0.038,0.174,0.016,0.237-0.055c0.055-0.07,0.055-0.169,0.005-0.239l-3.091-4.34c-0.132-0.183-0.161-0.416-0.062-0.619
					l2.165-4.876c0.036-0.081,0.016-0.178-0.058-0.231c-0.064-0.058-0.163-0.061-0.239-0.008l-4.34,3.095
					c-0.179,0.128-0.416,0.154-0.619,0.061l-4.869-2.163c-0.083-0.033-0.174-0.01-0.236,0.058c-0.055,0.069-0.055,0.168-0.008,0.241
					l3.093,4.341C424.152,245.332,424.177,245.566,424.086,245.769z"/>
				<path fill="#F17AA8" d="M434.673,279.006c-0.28,0-0.547,0.054-0.829,0.072c-1.097-2.215-2.565-4.257-4.315-6.077
					c0.936-1.117,1.471-2.323,1.471-3.587c0-0.78-0.213-1.533-0.582-2.267c-0.811,1.113-2.08,1.997-3.688,2.55
					c-2.274,3.189-9.781,5.534-18.704,5.534c-9.521,0-17.434-2.664-19.092-6.178c-1.36-0.354-2.514-0.937-3.418-1.686
					c-0.302,0.663-0.46,1.347-0.46,2.049c0,1.263,0.535,2.47,1.468,3.588c-1.752,1.816-3.213,3.856-4.312,6.068
					c-0.263-0.019-0.51-0.067-0.778-0.067c-6.295,0.002-11.421,4.432-11.421,9.872s5.126,9.869,11.424,9.869
					c0.268,0,0.515-0.055,0.777-0.064c1.955,3.938,5.061,7.324,8.937,9.877c-0.458,0.649-0.733,1.44-0.733,2.297
					c0,2.202,1.788,3.993,3.993,3.993h27.232c2.204,0,3.993-1.791,3.993-3.993c0-0.856-0.278-1.647-0.728-2.297
					c3.874-2.547,6.982-5.938,8.931-9.882c0.276,0.022,0.545,0.069,0.83,0.069c6.297,0,11.421-4.429,11.421-9.869
					C446.095,283.435,440.971,279.006,434.673,279.006z M380.375,293.341c-2.82-0.388-5.035-2.272-5.035-4.465
					c0-2.194,2.215-4.071,5.035-4.463c-0.302,1.447-0.486,2.937-0.486,4.465S380.07,291.891,380.375,293.341z M435.688,293.346
					c0.303-1.45,0.491-2.937,0.491-4.47c0-1.529-0.179-3.018-0.491-4.472c2.84,0.375,5.084,2.261,5.084,4.468
					S438.528,292.969,435.688,293.346z"/>
				<path fill="#F17AA8" d="M394.704,269.159c0.842,0.957,2.469,1.646,4.417,1.804c-0.289-0.609-0.478-1.263-0.478-1.956
					c0-0.757,0.205-1.461,0.54-2.113C398.138,267.979,396.568,268.762,394.704,269.159z"/>
				<path fill="#F17AA8" d="M407.212,272.333c0.746,0,1.458-0.088,2.116-0.229c-1.668-1.078-2.7-2.625-2.7-4.416
					c0-0.234,0.057-0.453,0.09-0.679c-0.067,0-0.132,0.013-0.203,0.013c-1.193,0-2.311-0.16-3.327-0.441
					c-1.154,0.605-1.885,1.463-1.885,2.426C401.304,270.841,403.947,272.333,407.212,272.333z"/>
				<path fill="#F17AA8" d="M415.197,271.016c1.729,0,3.27-0.429,4.354-1.097c-3.145-0.858-5.263-2.938-5.285-5.509
					c-0.236,0.024-0.462,0.056-0.688,0.092c-0.957,0.97-2.321,1.705-3.948,2.12c-0.201,0.336-0.335,0.688-0.335,1.063
					C409.289,269.523,411.933,271.016,415.197,271.016z"/>
				<path fill="#F17AA8" d="M428.729,264.361c0-1.468-1.703-2.7-4.044-3.143c-1.321,2.044-4.195,3.402-7.718,3.415
					c0.257,1.709,2.758,3.052,5.854,3.052C426.083,267.688,428.729,266.197,428.729,264.361z"/>
				<path fill="#F17AA8" d="M415.085,261.032c0,0.257-0.06,0.498-0.102,0.748c0.608,0.119,1.252,0.195,1.934,0.195
					c3.265,0,5.906-1.49,5.906-3.328c0-1.452-1.666-2.677-3.969-3.129c-0.86,1.398-2.446,2.492-4.476,3.064
					C414.825,259.323,415.085,260.15,415.085,261.032z"/>
				<path fill="#F17AA8" d="M386.168,263.467c0,1.836,2.644,3.327,5.906,3.327c3.265,0,5.906-1.491,5.906-3.327
					c0-0.573-0.281-1.109-0.735-1.579c-0.26,0.069-0.51,0.152-0.772,0.207c-0.876,0.186-1.757,0.278-2.615,0.278
					c-2.149,0-3.958-0.595-5.224-1.601C387.143,261.378,386.168,262.357,386.168,263.467z"/>
				<path fill="#F17AA8" d="M393.852,259.714c0.657,0,1.354-0.069,2.066-0.221c1.099-0.23,2.079-0.629,2.89-1.112
					c0.338-0.502,0.767-0.952,1.276-1.354c-0.071-0.008-0.146-0.003-0.219-0.014c-2.828-0.354-5.326-1.598-6.672-3.326
					c-0.06-0.081-0.101-0.169-0.158-0.249c-2.366,0.893-3.902,2.521-3.587,4.02C389.745,258.851,391.562,259.714,393.852,259.714z"
					/>
				<path fill="#F17AA8" d="M400.199,254.373c0.434,0.051,0.863,0.081,1.277,0.081c0.405,0,0.795-0.034,1.167-0.081
					c-0.125-0.427-0.201-0.866-0.201-1.323c0-1.602,0.832-3,2.189-4.056c-0.951-0.597-2.196-1.05-3.611-1.227
					c-0.437-0.055-0.862-0.078-1.278-0.078c-2.667,0-4.796,1.074-4.991,2.657C394.522,252.163,396.963,253.967,400.199,254.373z"/>
				<path fill="#F17AA8" d="M406.336,255.057c0.06,0,0.12-0.011,0.179-0.011c2.072,0,3.907,0.483,5.357,1.276
					c2.849-0.237,5.045-1.606,5.045-3.275c0-1.838-2.644-3.327-5.905-3.327c-3.265,0-5.906,1.489-5.906,3.327
					C405.106,253.807,405.574,254.497,406.336,255.057z"/>
				<ellipse fill="#F17AA8" cx="406.515" cy="261.032" rx="5.909" ry="3.328"/>
			</g>
		</g>
	</g>
</g>
</svg>
