<?xml version="1.0" encoding="utf-8"?>
<!-- Generator: Adobe Illustrator 16.0.0, SVG Export Plug-In . SVG Version: 6.00 Build 0)  -->
<!DOCTYPE svg PUBLIC "-//W3C//DTD SVG 1.1//EN" "http://www.w3.org/Graphics/SVG/1.1/DTD/svg11.dtd">
<svg version="1.1" id="Layer_1" xmlns="http://www.w3.org/2000/svg" xmlns:xlink="http://www.w3.org/1999/xlink" x="0px" y="0px"
	 width="1400px" height="700px" viewBox="0 0 1400 700" enable-background="new 0 0 1400 700" xml:space="preserve">
<g>
	<path fill="#32C5EE" d="M626.47,329.9h1.485v32.129h-0.9v-31.004h-0.09l-13.635,31.004h-0.989l-13.635-31.004h-0.09v31.004h-0.9
		V329.9h1.485l13.589,30.959h0.091L626.47,329.9z"/>
	<path fill="#32C5EE" d="M632.815,346.055c0.226-4.365,3.104-7.695,8.819-7.695c4.096,0,7.516,1.575,7.649,6.615v14.714
		c0,1.754,1.665,1.574,2.925,1.438v0.899c-0.45,0.045-0.9,0.045-1.35,0.045c-1.307,0-2.477-0.539-2.477-2.295v-3.015h-0.09
		c-0.945,2.97-4.364,5.806-9.18,5.806c-4.636,0-7.739-2.114-7.739-6.256c0-5.715,4.095-6.705,7.965-6.93
		c6.345-0.36,9.044-0.27,9.044-3.735c0-2.745-0.585-6.39-6.749-6.39c-4.859,0-7.604,2.475-7.92,6.795h-0.898V346.055z
		 M648.385,348.44h-0.09c-1.17,1.71-5.31,1.62-8.954,1.845c-3.646,0.225-7.064,1.081-7.064,6.029c0,2.654,1.71,5.355,6.75,5.355
		c6.028,0,9.358-4.41,9.358-8.955V348.44z"/>
	<path fill="#32C5EE" d="M656.98,339.8v17.729c0,3.465,1.71,3.6,3.104,3.6c0.9,0,1.665,0,1.979-0.135v0.9
		c-0.539,0.045-0.81,0.135-2.203,0.135c-2.115,0-3.78-1.035-3.78-4.32V339.8h-4.274v-0.9h4.274v-7.29h0.899v7.29h5.221v0.9H656.98z"
		/>
	<path fill="#32C5EE" d="M665.35,329.9h0.9v14.715h0.09c0.811-3.555,3.78-6.255,8.324-6.255c4.814,0,8.235,2.925,8.235,8.325v15.344
		h-0.9V346.82c0-5.354-3.375-7.56-7.335-7.56c-5.534,0-8.414,4.5-8.414,9.675v13.094h-0.9V329.9L665.35,329.9z"/>
	<path fill="#A0CD45" d="M709.854,329.9h1.08l-13.004,18.584v13.543h-0.899v-13.543L684.025,329.9h1.125l12.328,17.64L709.854,329.9
		z"/>
	<path fill="#A0CD45" d="M721.284,338.36c6.705,0,10.395,5.805,10.395,12.104c0,6.345-3.645,12.104-10.438,12.104
		c-6.749,0-10.396-5.76-10.396-12.104C710.845,344.165,714.49,338.36,721.284,338.36z M721.284,361.67
		c6.165,0,9.495-5.311,9.495-11.205c0-5.76-3.33-11.205-9.495-11.205c-6.255,0-9.539,5.445-9.539,11.205
		C711.745,356.359,715.029,361.67,721.284,361.67z"/>
	<path fill="#A0CD45" d="M753.009,354.289h-0.09c-0.99,4.141-5.13,6.48-9.09,6.48c-6.436,0-9.63-5.131-9.63-11.07
		c0-6.209,3.42-11.339,9.943-11.339c4.455,0,7.785,2.925,8.775,6.705h0.09V338.9h0.899v22.364c0,6.346-3.556,9.271-9.629,9.271
		c-4.681,0-8.686-2.07-8.82-7.29h0.9c0.135,4.545,3.733,6.39,7.875,6.39c5.624,0,8.773-2.61,8.773-8.37v-6.975H753.009z
		 M744.144,339.26c-5.983,0-9.044,4.815-9.044,10.439c0,5.714,3.061,10.169,8.686,10.169c5.938,0,9.18-4.591,9.18-10.169
		C752.964,344.39,749.949,339.26,744.144,339.26z"/>
	<path fill="#A0CD45" d="M759.669,334.445h-0.9V329.9h0.9V334.445z M759.669,362.029h-0.9V338.9h0.9V362.029z"/>
</g>
<g opacity="0.75">
	<path fill="#8BC541" d="M918.121,496.406h31.271v17.869h-8.935v8.936h8.935v17.871h-31.271V496.406z"/>
	<path fill="#8BC541" d="M962.797,523.211h-8.936v-8.936h8.936v-8.935h26.805v26.806h-26.805V523.211z"/>
</g>
<g opacity="0.75">
	<path fill="#2CA8E0" d="M726.028,654.665c0.357-1.415,0.566-2.896,0.566-4.425c0-9.615-7.809-17.412-17.429-17.412
		c-11.125,0.017-12.612,8.481-12.612,8.481s-4.675-5.771-12.919-4.778c-7.423,1.479-12.27,8.156-12.27,14.967
		c0,1.172,0.165,2.292,0.473,3.382c-5.565,2.032-9.532,7.384-9.532,13.645c0,8.026,6.508,14.534,14.539,14.534h15.588v-19.601
		h-6.646l13.627-13.302l13.289,13.625h-6.646v19.278h15.584c8.038,0,14.543-6.508,14.543-14.534
		C736.188,662.014,731.91,656.514,726.028,654.665z"/>
</g>
<g>
	<path fill="#EE2D2F" d="M784.906,38.84c-10.092,0-21.137,14.475-24.664,19.499c-3.562-5.065-14.569-19.454-24.631-19.454
		c-12.08,0-21.909,9.829-21.909,21.909s9.829,21.909,21.909,21.909c10.092,0,21.136-14.475,24.664-19.499
		c3.562,5.065,14.568,19.454,24.631,19.454c12.08,0,21.909-9.829,21.909-21.909S796.986,38.84,784.906,38.84z M735.611,79.964
		c-10.571,0-19.17-8.599-19.17-19.17c0-10.571,8.599-19.17,19.17-19.17c9.296,0,20.513,15.551,22.997,19.17
		C756.124,64.414,744.907,79.964,735.611,79.964z M784.906,79.92c-9.296,0-20.514-15.552-22.997-19.17
		c2.482-3.619,13.7-19.17,22.997-19.17c10.57,0,19.17,8.6,19.17,19.17S795.479,79.92,784.906,79.92z"/>
</g>
<polyline fill="none" stroke="#EE2D2F" stroke-width="7.3975" stroke-linecap="round" stroke-linejoin="bevel" stroke-miterlimit="10" points="
	612.117,3 550.231,110.19 621.281,233.705 678.715,233.705 736.149,233.705 807.2,110.19 799.903,97.552 "/>
<polyline opacity="0.75" fill="none" stroke="#2DA9E1" stroke-width="7.3975" stroke-linecap="round" stroke-linejoin="bevel" stroke-miterlimit="10" enable-background="new    " points="
	621.281,464.408 678.715,464.408 736.149,464.408 807.2,587.922 745.312,695.113 "/>
<polyline opacity="0.75" fill="none" stroke="#8CC541" stroke-width="7.3975" stroke-linecap="round" stroke-linejoin="bevel" stroke-miterlimit="10" enable-background="new    " points="
	807.255,358.617 751.404,455.354 823.891,579.76 945.971,579.76 957.051,560.568 "/>
<polyline opacity="0.9" fill="none" stroke="#F79226" stroke-width="7.3975" stroke-linecap="round" stroke-linejoin="bevel" stroke-miterlimit="10" enable-background="new    " points="
	751.404,242.76 807.255,339.496 951.489,339.496 967.171,312.336 "/>
<polyline opacity="0.75" fill="none" stroke="#67308F" stroke-width="7.3975" stroke-linecap="round" stroke-linejoin="bevel" stroke-miterlimit="10" enable-background="new    " points="
	550.175,358.617 606.025,455.354 533.539,579.76 422.418,579.76 "/>
<polyline opacity="0.75" fill="none" stroke="#F27BA9" stroke-width="7.3975" stroke-linecap="round" stroke-linejoin="bevel" stroke-miterlimit="10" enable-background="new    " points="
	411.459,118.352 533.539,118.352 606.025,242.76 550.175,339.496 405.94,339.496 398.868,327.248 "/>
<g>
	<g>
		<path fill="#2DA9E1" d="M325.181,63.548l1.23,4.609h0.117l1.229-4.609l6.719-21.797h1.173l6.68,21.797l1.211,4.609h0.117
			l1.27-4.609l5.859-21.797h1.152l-7.656,28.438h-1.191l-7.051-23.711l-0.938-2.832h-0.116l-0.898,2.832l-7.109,23.711h-1.19
			l-7.676-28.438h1.172L325.181,63.548z"/>
		<path fill="#2DA9E1" d="M357.564,53.45c0.663-1.51,1.627-2.686,2.891-3.525c1.263-0.84,2.799-1.26,4.609-1.26
			c2.199,0,3.869,0.697,5.01,2.09c1.139,1.394,1.709,3.587,1.709,6.582v12.852h-1.074V57.298c0-2.773-0.511-4.729-1.533-5.869
			c-1.021-1.139-2.386-1.709-4.092-1.709c-2.24,0-3.968,0.658-5.186,1.973c-1.219,1.315-1.996,3.001-2.334,5.059V70.19h-1.056V59.37
			h-0.039c0-0.273,0-0.501,0-0.684c0-0.182,0.014-0.364,0.039-0.547V39.72h1.056V53.45z"/>
		<path fill="#2DA9E1" d="M391.666,66.282c-0.729,1.276-1.816,2.314-3.262,3.115c-1.446,0.801-3.197,1.201-5.254,1.201
			c-1.967,0-3.51-0.537-4.629-1.611c-1.12-1.074-1.681-2.522-1.681-4.346c0-1.771,0.836-3.255,2.51-4.453s3.767-1.797,6.279-1.797
			h6.035v-3.086c0-1.758-0.563-3.128-1.689-4.111s-2.712-1.475-4.756-1.475c-1.914,0-3.454,0.462-4.619,1.387
			c-1.166,0.925-1.747,2.116-1.747,3.574l-0.88-0.039l-0.039-0.098c-0.077-1.641,0.561-3.03,1.914-4.17
			c1.354-1.139,3.146-1.709,5.371-1.709c2.267,0,4.082,0.573,5.449,1.719s2.051,2.8,2.051,4.961V65.93
			c0,0.742,0.042,1.465,0.127,2.168c0.084,0.703,0.226,1.4,0.42,2.09h-1.172c-0.169-0.924-0.282-1.618-0.342-2.08
			c-0.059-0.462-0.088-0.96-0.088-1.494L391.666,66.282L391.666,66.282z M383.15,69.563c2.096,0,3.869-0.462,5.321-1.387
			c1.452-0.924,2.517-2.246,3.193-3.965v-4.746h-5.978c-2.188,0-4.032,0.505-5.536,1.514s-2.257,2.256-2.257,3.74
			c0,1.419,0.479,2.582,1.437,3.486C380.289,69.111,381.561,69.563,383.15,69.563z"/>
		<path fill="#2DA9E1" d="M401.705,43.353v5.703h5.195v1.074h-5.195v14.609c0,1.732,0.293,2.966,0.879,3.701
			c0.586,0.736,1.36,1.104,2.324,1.104c0.352,0,0.664-0.013,0.938-0.039c0.273-0.026,0.651-0.071,1.133-0.137l0.195,0.957
			c-0.326,0.104-0.664,0.176-1.016,0.215c-0.353,0.039-0.749,0.059-1.191,0.059c-1.419,0-2.497-0.462-3.231-1.387
			c-0.736-0.924-1.104-2.415-1.104-4.473V50.13h-3.906v-1.074h3.906v-5.703H401.705z"/>
		<path fill="#2DA9E1" d="M426.353,63.548l1.23,4.609h0.117l1.229-4.609l6.72-21.797h1.172l6.68,21.797l1.211,4.609h0.117
			l1.27-4.609l5.859-21.797h1.152l-7.656,28.438h-1.191l-7.051-23.711l-0.938-2.832h-0.117l-0.898,2.832l-7.108,23.711h-1.191
			l-7.676-28.438h1.172L426.353,63.548z"/>
		<path fill="#2DA9E1" d="M464.478,70.599c-2.486,0-4.587-0.963-6.299-2.891c-1.712-1.927-2.567-4.355-2.567-7.285v-1.25
			c0-3.06,0.85-5.576,2.549-7.549s3.838-2.959,6.416-2.959c2.344,0,4.212,0.771,5.604,2.314c1.394,1.543,2.091,3.649,2.091,6.318
			v1.621h-15.605v0.254v1.25c0,2.578,0.729,4.743,2.188,6.494c1.458,1.751,3.333,2.627,5.625,2.627c1.264,0,2.478-0.234,3.644-0.703
			c1.165-0.469,2.112-1.094,2.842-1.875l0.566,0.82c-0.742,0.82-1.699,1.494-2.871,2.021
			C467.487,70.333,466.092,70.599,464.478,70.599z M464.576,49.72c-2.188,0-3.981,0.759-5.381,2.275
			c-1.4,1.517-2.191,3.435-2.373,5.752l0.059,0.117h14.336V57.22c0-2.174-0.593-3.968-1.776-5.381
			C468.254,50.426,466.633,49.72,464.576,49.72z"/>
		<path fill="#2DA9E1" d="M487.486,70.188V41.751h8.457c3.268,0,6.042,1.172,8.319,3.516c2.278,2.344,3.418,5.332,3.418,8.965v3.477
			c0,3.646-1.14,6.638-3.418,8.975s-5.052,3.506-8.319,3.506h-8.457V70.188z M488.541,42.806v26.328h7.402
			c2.956,0,5.475-1.081,7.559-3.242c2.083-2.161,3.125-4.889,3.125-8.184v-3.535c0-3.255-1.042-5.963-3.125-8.125
			c-2.083-2.161-4.603-3.242-7.559-3.242H488.541z"/>
		<path fill="#2DA9E1" d="M512.037,59.212c0-3.099,0.855-5.631,2.568-7.598c1.712-1.966,3.936-2.949,6.67-2.949
			c2.746,0,4.977,0.983,6.688,2.949c1.712,1.966,2.568,4.499,2.568,7.598v0.82c0,3.112-0.856,5.651-2.568,7.617
			c-1.712,1.966-3.929,2.949-6.649,2.949c-2.748,0-4.98-0.983-6.699-2.949c-1.719-1.966-2.578-4.505-2.578-7.617V59.212z
			 M513.091,60.032c0,2.656,0.742,4.906,2.228,6.748c1.483,1.843,3.482,2.764,5.996,2.764c2.474,0,4.452-0.924,5.938-2.773
			c1.484-1.849,2.227-4.095,2.227-6.738v-0.82c0-2.591-0.749-4.821-2.245-6.689c-1.498-1.868-3.483-2.803-5.957-2.803
			c-2.487,0-4.474,0.935-5.957,2.803c-1.484,1.869-2.228,4.099-2.228,6.689L513.091,60.032L513.091,60.032z"/>
	</g>
</g>
<g opacity="0.75">
	<g>
		<g>
			<path fill="#66318D" d="M403.63,539.674h-12.822l0.865,4.002c0.106,0.498,0.103,0.998,0.045,1.488h9.166v64.695h-50.76v-64.695
				h9.169c-0.056-0.494-0.058-0.992,0.048-1.492l0.865-3.998h-12.824c-1.515,0-2.741,1.23-2.741,2.744v70.186
				c0,1.515,1.228,2.746,2.741,2.746h56.248c1.517,0,2.744-1.231,2.744-2.746v-70.186
				C406.374,540.904,405.146,539.674,403.63,539.674z"/>
			<path fill="#66318D" d="M394.423,559.512h-18.746c-1.518,0-2.744,1.229-2.744,2.742c0,1.516,1.228,2.744,2.744,2.744h18.746
				c1.52,0,2.744-1.229,2.744-2.744C397.168,560.74,395.941,559.512,394.423,559.512z"/>
			<path fill="#66318D" d="M394.423,576.344h-18.746c-1.518,0-2.744,1.229-2.744,2.744c0,1.514,1.228,2.744,2.744,2.744h18.746
				c1.52,0,2.744-1.23,2.744-2.744C397.168,577.572,395.941,576.344,394.423,576.344z"/>
			<path fill="#66318D" d="M354.817,560.156c-1.156,0.977-1.307,2.707-0.329,3.867l4.003,4.743c0.522,0.621,1.29,0.976,2.098,0.976
				c0.066,0,0.133-0.004,0.201-0.008c0.876-0.064,1.67-0.547,2.131-1.295l7.202-11.66c0.796-1.289,0.398-2.979-0.893-3.773
				c-1.288-0.803-2.979-0.397-3.774,0.892l-5.213,8.438l-1.562-1.848C357.706,559.326,355.978,559.178,354.817,560.156z"/>
			<path fill="#66318D" d="M361.39,574.973c-2.272,0-4.116,1.845-4.116,4.115c0,2.273,1.844,4.115,4.116,4.115
				c2.273,0,4.115-1.842,4.115-4.115C365.505,576.816,363.663,574.973,361.39,574.973z"/>
			<path fill="#66318D" d="M394.423,592.807h-18.746c-1.518,0-2.744,1.228-2.744,2.744c0,1.515,1.228,2.744,2.744,2.744h18.746
				c1.52,0,2.744-1.229,2.744-2.744C397.168,594.033,395.941,592.807,394.423,592.807z"/>
			<path fill="#66318D" d="M361.39,591.438c-2.272,0-4.116,1.843-4.116,4.115c0,2.271,1.844,4.113,4.116,4.113
				c2.273,0,4.115-1.842,4.115-4.113C365.505,593.279,363.663,591.438,361.39,591.438z"/>
			<path fill="#66318D" d="M363.864,546.533h23.279c0.571,0,1.11-0.256,1.469-0.699c0.357-0.443,0.497-1.025,0.374-1.584
				l-1.928-8.918c-0.188-0.869-0.955-1.488-1.842-1.488h-19.424c-0.887,0-1.653,0.619-1.842,1.488l-1.931,8.918
				c-0.116,0.559,0.021,1.141,0.378,1.584C362.758,546.277,363.296,546.533,363.864,546.533z"/>
		</g>
	</g>
</g>
<g opacity="0.9">
	<path fill="#F79227" d="M968.146,243.785h2.314v13.099c0,0.476,0.385,0.861,0.86,0.861h1.768c0.477,0,0.86-0.385,0.86-0.861
		v-15.661c0-0.475-0.385-0.861-0.86-0.861h-4.942c-0.477,0-0.86,0.386-0.86,0.861v1.701
		C967.286,243.399,967.671,243.785,968.146,243.785z"/>
	<path fill="#F79227" d="M955.431,290.506h-6.483l3.444-3.65c1.369-1.462,3.003-3.632,3.003-5.666c0-2.817-2.261-4.71-5.625-4.71
		c-2.023,0-4.156,0.871-5.852,2.39c-0.297,0.266-0.372,0.702-0.181,1.053l0.78,1.432c0.13,0.236,0.359,0.399,0.625,0.439
		c0.268,0.041,0.535-0.045,0.729-0.231c1.104-1.067,2.479-1.705,3.673-1.705c1.038,0,2.274,0.274,2.274,1.579
		c0,0.634-0.586,1.861-1.896,3.171c-0.009,0.009-0.017,0.017-0.024,0.026l-5.864,6.375c-0.146,0.159-0.229,0.367-0.229,0.583v1.477
		c0,0.476,0.386,0.861,0.861,0.861h10.764c0.476,0,0.86-0.385,0.86-0.861v-1.702C956.291,290.892,955.905,290.506,955.431,290.506z"
		/>
	<path fill="#F79227" d="M993.665,267.292c-1.669,0-3.283,0.234-4.816,0.664l-4.776-5.859c3.477-3.27,5.654-7.906,5.654-13.044
		c0-9.877-8.035-17.913-17.912-17.913s-17.913,8.035-17.913,17.913c0,5.138,2.179,9.775,5.654,13.044l-4.776,5.859
		c-1.533-0.429-3.147-0.664-4.816-0.664c-9.877,0-17.912,8.035-17.912,17.912s8.035,17.913,17.912,17.913
		c9.229,0,16.846-7.015,17.809-15.991h8.088c0.962,8.976,8.58,15.991,17.808,15.991c9.877,0,17.912-8.036,17.912-17.913
		S1003.542,267.292,993.665,267.292z M957.315,249.053c0-7.994,6.504-14.498,14.497-14.498c7.994,0,14.498,6.504,14.498,14.498
		c0,7.994-6.504,14.498-14.498,14.498C963.819,263.551,957.315,257.047,957.315,249.053z M961.903,263.965
		c2.84,1.893,6.248,3,9.909,3c3.662,0,7.07-1.107,9.91-3l4.164,5.105c-5.687,2.752-9.704,8.424-10.1,15.056h-7.949
		c-0.396-6.631-4.414-12.303-10.1-15.056L961.903,263.965z M949.962,299.702c-7.994,0-14.498-6.503-14.498-14.498
		s6.504-14.498,14.498-14.498s14.498,6.503,14.498,14.498S957.956,299.702,949.962,299.702z M993.665,299.702
		c-7.994,0-14.498-6.503-14.498-14.498s6.504-14.498,14.498-14.498s14.498,6.503,14.498,14.498S1001.659,299.702,993.665,299.702z"
		/>
	<path fill="#F79227" d="M995.092,283.235l3.7-4.111c0.143-0.158,0.221-0.363,0.221-0.575v-1.208c0-0.476-0.385-0.861-0.86-0.861
		h-9.015c-0.476,0-0.86,0.385-0.86,0.861v1.701c0,0.476,0.386,0.861,0.86,0.861h4.841l-3.287,3.64
		c-0.144,0.159-0.224,0.364-0.224,0.577v1.141c0,0.475,0.386,0.861,0.861,0.861h1.926c2.01,0,3.029,0.711,3.029,2.113
		c0,1.479-1.125,2.361-3.01,2.361c-1.232,0-2.513-0.467-3.505-1.282c-0.2-0.165-0.464-0.229-0.719-0.178
		c-0.254,0.052-0.471,0.216-0.591,0.445l-0.782,1.499c-0.197,0.378-0.088,0.846,0.258,1.096c1.521,1.098,3.564,1.753,5.474,1.753
		c3.793,0,6.341-2.315,6.341-5.761C999.75,285.539,997.95,283.671,995.092,283.235z"/>
</g>
<g opacity="0.75">
	<g>
		<g id="Icons_1_">
			<g>
				<path fill="#F17AA8" d="M450.479,260.374l-3.383-5.755c-0.112-0.192-0.117-0.427-0.011-0.621l3.231-5.841
					c0.138-0.247,0.091-0.554-0.111-0.753c-0.203-0.197-0.507-0.234-0.751-0.092l-5.757,3.39c-0.188,0.112-0.421,0.114-0.614,0.008
					l-5.843-3.229c-0.25-0.138-0.557-0.09-0.748,0.111c-0.192,0.204-0.235,0.511-0.088,0.751l3.382,5.756
					c0.111,0.192,0.117,0.426,0.009,0.621l-3.23,5.844c-0.138,0.247-0.091,0.554,0.112,0.751c0.203,0.197,0.509,0.236,0.753,0.091
					l5.755-3.385c0.186-0.111,0.427-0.114,0.613-0.007l5.841,3.228c0.246,0.136,0.557,0.091,0.751-0.111
					C450.586,260.928,450.62,260.618,450.479,260.374z"/>
				<path fill="#F17AA8" d="M377.185,250.929c0.186,0.122,0.286,0.332,0.273,0.553l-0.325,5.896
					c-0.005,0.116,0.067,0.226,0.179,0.262c0.111,0.039,0.234-0.003,0.3-0.104l3.279-4.907c0.123-0.185,0.333-0.292,0.555-0.276
					l5.896,0.325c0.12,0.005,0.227-0.067,0.267-0.18c0.032-0.111-0.006-0.233-0.107-0.302l-4.905-3.277
					c-0.187-0.125-0.291-0.335-0.277-0.556l0.324-5.898c0.006-0.116-0.064-0.224-0.177-0.26c-0.114-0.036-0.235,0.005-0.299,0.102
					l-3.286,4.909c-0.122,0.183-0.333,0.289-0.553,0.279l-5.896-0.328c-0.116-0.005-0.224,0.065-0.26,0.177
					c-0.039,0.112,0.005,0.236,0.104,0.302L377.185,250.929z"/>
				<path fill="#F17AA8" d="M424.086,245.769l-2.165,4.876c-0.037,0.081-0.013,0.177,0.058,0.232c0.06,0.056,0.163,0.06,0.238,0.007
					l4.335-3.096c0.181-0.127,0.416-0.152,0.617-0.062l4.873,2.162c0.081,0.038,0.174,0.016,0.237-0.055
					c0.055-0.07,0.055-0.169,0.005-0.239l-3.091-4.34c-0.133-0.183-0.161-0.416-0.062-0.619l2.165-4.876
					c0.036-0.081,0.016-0.178-0.058-0.231c-0.064-0.058-0.163-0.061-0.239-0.008l-4.34,3.095c-0.179,0.128-0.416,0.154-0.619,0.061
					l-4.869-2.163c-0.083-0.033-0.174-0.01-0.236,0.058c-0.055,0.069-0.055,0.168-0.008,0.241l3.093,4.341
					C424.152,245.332,424.177,245.566,424.086,245.769z"/>
				<path fill="#F17AA8" d="M434.673,279.006c-0.28,0-0.547,0.054-0.829,0.072c-1.097-2.215-2.564-4.257-4.314-6.077
					c0.936-1.117,1.471-2.323,1.471-3.587c0-0.78-0.213-1.533-0.582-2.267c-0.811,1.113-2.08,1.997-3.688,2.55
					c-2.274,3.189-9.781,5.534-18.704,5.534c-9.521,0-17.435-2.664-19.093-6.178c-1.359-0.354-2.514-0.937-3.418-1.686
					c-0.302,0.663-0.46,1.347-0.46,2.049c0,1.263,0.535,2.47,1.469,3.588c-1.753,1.816-3.214,3.856-4.312,6.068
					c-0.263-0.019-0.51-0.067-0.778-0.067c-6.295,0.002-11.421,4.432-11.421,9.872s5.126,9.869,11.424,9.869
					c0.269,0,0.516-0.055,0.777-0.064c1.955,3.938,5.062,7.324,8.938,9.877c-0.458,0.649-0.733,1.44-0.733,2.297
					c0,2.202,1.788,3.993,3.993,3.993h27.231c2.204,0,3.993-1.791,3.993-3.993c0-0.856-0.277-1.647-0.728-2.297
					c3.874-2.547,6.981-5.938,8.931-9.882c0.276,0.022,0.545,0.069,0.83,0.069c6.297,0,11.421-4.429,11.421-9.869
					C446.095,283.435,440.971,279.006,434.673,279.006z M380.375,293.341c-2.82-0.388-5.035-2.272-5.035-4.465
					c0-2.194,2.215-4.071,5.035-4.463c-0.302,1.447-0.486,2.937-0.486,4.465S380.07,291.891,380.375,293.341z M435.688,293.346
					c0.304-1.45,0.491-2.937,0.491-4.47c0-1.529-0.179-3.018-0.491-4.472c2.841,0.375,5.085,2.261,5.085,4.468
					S438.528,292.969,435.688,293.346z"/>
				<path fill="#F17AA8" d="M394.704,269.159c0.842,0.957,2.469,1.646,4.417,1.804c-0.289-0.609-0.479-1.263-0.479-1.956
					c0-0.757,0.205-1.461,0.54-2.113C398.138,267.979,396.568,268.762,394.704,269.159z"/>
				<path fill="#F17AA8" d="M407.212,272.333c0.746,0,1.458-0.088,2.116-0.229c-1.668-1.078-2.7-2.625-2.7-4.416
					c0-0.234,0.057-0.453,0.09-0.679c-0.066,0-0.132,0.013-0.203,0.013c-1.192,0-2.311-0.16-3.327-0.441
					c-1.153,0.605-1.885,1.463-1.885,2.426C401.304,270.841,403.947,272.333,407.212,272.333z"/>
				<path fill="#F17AA8" d="M415.197,271.016c1.729,0,3.27-0.429,4.354-1.097c-3.145-0.858-5.263-2.938-5.285-5.509
					c-0.235,0.024-0.462,0.056-0.688,0.092c-0.957,0.97-2.321,1.705-3.948,2.12c-0.201,0.336-0.335,0.688-0.335,1.063
					C409.289,269.523,411.933,271.016,415.197,271.016z"/>
				<path fill="#F17AA8" d="M428.729,264.361c0-1.468-1.702-2.7-4.044-3.143c-1.32,2.044-4.194,3.402-7.718,3.415
					c0.257,1.709,2.758,3.052,5.854,3.052C426.083,267.688,428.729,266.197,428.729,264.361z"/>
				<path fill="#F17AA8" d="M415.085,261.032c0,0.257-0.06,0.498-0.102,0.748c0.607,0.119,1.252,0.195,1.934,0.195
					c3.265,0,5.906-1.49,5.906-3.328c0-1.452-1.666-2.677-3.97-3.129c-0.859,1.398-2.445,2.492-4.476,3.064
					C414.825,259.323,415.085,260.15,415.085,261.032z"/>
				<path fill="#F17AA8" d="M386.168,263.467c0,1.836,2.645,3.327,5.906,3.327c3.265,0,5.906-1.491,5.906-3.327
					c0-0.573-0.281-1.109-0.735-1.579c-0.26,0.069-0.51,0.152-0.772,0.207c-0.876,0.186-1.757,0.278-2.614,0.278
					c-2.149,0-3.958-0.595-5.225-1.601C387.143,261.378,386.168,262.357,386.168,263.467z"/>
				<path fill="#F17AA8" d="M393.852,259.714c0.657,0,1.354-0.069,2.066-0.221c1.099-0.23,2.079-0.629,2.89-1.112
					c0.339-0.502,0.768-0.952,1.276-1.354c-0.071-0.008-0.146-0.003-0.219-0.014c-2.828-0.354-5.326-1.598-6.672-3.326
					c-0.061-0.081-0.102-0.169-0.158-0.249c-2.366,0.893-3.902,2.521-3.587,4.02C389.745,258.851,391.562,259.714,393.852,259.714z"
					/>
				<path fill="#F17AA8" d="M400.199,254.373c0.434,0.051,0.863,0.081,1.276,0.081c0.405,0,0.796-0.034,1.167-0.081
					c-0.125-0.427-0.2-0.866-0.2-1.323c0-1.602,0.832-3,2.188-4.056c-0.951-0.597-2.196-1.05-3.611-1.227
					c-0.437-0.055-0.861-0.078-1.277-0.078c-2.667,0-4.796,1.074-4.991,2.657C394.522,252.163,396.963,253.967,400.199,254.373z"/>
				<path fill="#F17AA8" d="M406.336,255.057c0.061,0,0.12-0.011,0.179-0.011c2.072,0,3.907,0.483,5.357,1.276
					c2.849-0.237,5.045-1.606,5.045-3.275c0-1.838-2.644-3.327-5.905-3.327c-3.265,0-5.905,1.489-5.905,3.327
					C405.106,253.807,405.574,254.497,406.336,255.057z"/>
				<ellipse fill="#F17AA8" cx="406.515" cy="261.032" rx="5.909" ry="3.328"/>
			</g>
		</g>
	</g>
</g>
<g>
	<path fill="#EE2D2F" d="M822.766,59.602V64.5h-1.82V52.438h2.062c1.011,0,1.773,0.07,2.289,0.211
		c0.521,0.141,0.979,0.406,1.375,0.797c0.692,0.677,1.039,1.531,1.039,2.562c0,1.104-0.37,1.979-1.109,2.625
		c-0.739,0.646-1.737,0.969-2.992,0.969H822.766z M822.766,57.914h0.68c1.672,0,2.508-0.643,2.508-1.93
		c0-1.245-0.862-1.867-2.586-1.867h-0.602V57.914z"/>
	<path fill="#EE2D2F" d="M834.36,59.359l3.734,5.141h-2.227l-3.445-4.938h-0.328V64.5h-1.82V52.438h2.133
		c1.594,0,2.745,0.3,3.453,0.898c0.781,0.667,1.172,1.547,1.172,2.641c0,0.854-0.245,1.589-0.734,2.203
		C835.809,58.794,835.162,59.188,834.36,59.359z M832.095,57.977h0.578c1.724,0,2.586-0.659,2.586-1.977
		c0-1.234-0.839-1.852-2.516-1.852h-0.648V57.977z"/>
	<path fill="#EE2D2F" d="M847.681,61.57h-5.164l-1.344,2.93h-1.961l5.969-12.82l5.758,12.82h-1.992L847.681,61.57z M846.938,59.859
		l-1.789-4.102l-1.875,4.102H846.938z"/>
	<path fill="#EE2D2F" d="M861.486,53.082v2.152c-1.052-0.88-2.141-1.32-3.266-1.32c-1.239,0-2.284,0.445-3.133,1.336
		c-0.854,0.886-1.281,1.969-1.281,3.25c0,1.266,0.427,2.333,1.281,3.203c0.854,0.87,1.901,1.305,3.141,1.305
		c0.641,0,1.185-0.104,1.633-0.312c0.25-0.104,0.509-0.245,0.777-0.422c0.269-0.177,0.551-0.391,0.848-0.641v2.199
		c-1.042,0.591-2.136,0.887-3.281,0.887c-1.724,0-3.195-0.602-4.414-1.805c-1.214-1.213-1.82-2.677-1.82-4.391
		c0-1.536,0.508-2.906,1.523-4.109c1.25-1.474,2.867-2.211,4.852-2.211C859.429,52.203,860.476,52.496,861.486,53.082z"/>
	<path fill="#EE2D2F" d="M867.799,54.148V64.5h-1.82V54.148h-2.773v-1.711h7.359v1.711H867.799z"/>
	<path fill="#EE2D2F" d="M874.698,52.438V64.5h-1.82V52.438H874.698z"/>
	<path fill="#EE2D2F" d="M887.198,53.082v2.152c-1.052-0.88-2.141-1.32-3.266-1.32c-1.239,0-2.284,0.445-3.133,1.336
		c-0.854,0.886-1.281,1.969-1.281,3.25c0,1.266,0.427,2.333,1.281,3.203c0.854,0.87,1.901,1.305,3.141,1.305
		c0.641,0,1.185-0.104,1.633-0.312c0.25-0.104,0.509-0.245,0.777-0.422c0.269-0.177,0.551-0.391,0.848-0.641v2.199
		c-1.042,0.591-2.136,0.887-3.281,0.887c-1.724,0-3.195-0.602-4.414-1.805c-1.214-1.213-1.82-2.677-1.82-4.391
		c0-1.536,0.508-2.906,1.523-4.109c1.25-1.474,2.867-2.211,4.852-2.211C885.141,52.203,886.188,52.496,887.198,53.082z"/>
	<path fill="#EE2D2F" d="M896.84,54.148h-4.836v2.898h4.695v1.711h-4.695v4.031h4.836V64.5h-6.656V52.438h6.656V54.148z"/>
	<path fill="#EE2D2F" d="M907.364,59.602V64.5h-1.82V52.438h2.062c1.011,0,1.773,0.07,2.289,0.211
		c0.521,0.141,0.979,0.406,1.375,0.797c0.692,0.677,1.039,1.531,1.039,2.562c0,1.104-0.37,1.979-1.109,2.625
		c-0.739,0.646-1.737,0.969-2.992,0.969H907.364z M907.364,57.914h0.68c1.672,0,2.508-0.643,2.508-1.93
		c0-1.245-0.862-1.867-2.586-1.867h-0.602V57.914z"/>
	<path fill="#EE2D2F" d="M918.958,59.359l3.734,5.141h-2.227l-3.445-4.938h-0.328V64.5h-1.82V52.438h2.133
		c1.594,0,2.745,0.3,3.453,0.898c0.781,0.667,1.172,1.547,1.172,2.641c0,0.854-0.245,1.589-0.734,2.203
		C920.406,58.794,919.76,59.188,918.958,59.359z M916.692,57.977h0.578c1.724,0,2.586-0.659,2.586-1.977
		c0-1.234-0.839-1.852-2.516-1.852h-0.648V57.977z"/>
	<path fill="#EE2D2F" d="M924.318,58.414c0-1.698,0.622-3.156,1.867-4.375c1.239-1.219,2.729-1.828,4.469-1.828
		c1.719,0,3.192,0.615,4.422,1.844c1.234,1.229,1.852,2.706,1.852,4.43c0,1.734-0.62,3.206-1.859,4.414
		c-1.245,1.214-2.747,1.82-4.508,1.82c-1.558,0-2.956-0.539-4.195-1.617C925.001,61.909,924.318,60.347,924.318,58.414z
		 M926.154,58.434c0,1.332,0.448,2.428,1.344,3.286c0.891,0.859,1.919,1.288,3.086,1.288c1.266,0,2.333-0.437,3.203-1.312
		c0.87-0.884,1.305-1.962,1.305-3.231c0-1.285-0.43-2.362-1.289-3.231c-0.854-0.875-1.911-1.312-3.172-1.312
		c-1.255,0-2.315,0.437-3.18,1.312C926.587,56.097,926.154,57.164,926.154,58.434z"/>
	<path fill="#EE2D2F" d="M939.904,64.5V52.438h1.812c0.808,0,1.45,0.062,1.93,0.188c0.484,0.125,0.894,0.336,1.227,0.633
		c0.339,0.308,0.606,0.69,0.805,1.148c0.203,0.464,0.305,0.933,0.305,1.406c0,0.865-0.331,1.597-0.992,2.195
		c0.641,0.219,1.146,0.602,1.516,1.148c0.375,0.542,0.562,1.172,0.562,1.891c0,0.943-0.333,1.74-1,2.391
		c-0.401,0.401-0.852,0.68-1.352,0.836c-0.547,0.151-1.231,0.227-2.055,0.227H939.904z M941.725,57.617h0.57
		c0.677,0,1.173-0.149,1.488-0.449c0.315-0.299,0.473-0.741,0.473-1.324c0-0.567-0.161-0.999-0.484-1.293
		c-0.323-0.294-0.792-0.441-1.406-0.441h-0.641V57.617z M941.725,62.789h1.125c0.823,0,1.427-0.161,1.812-0.484
		c0.406-0.349,0.609-0.792,0.609-1.328c0-0.521-0.195-0.958-0.586-1.312c-0.38-0.349-1.06-0.523-2.039-0.523h-0.922V62.789z"/>
	<path fill="#EE2D2F" d="M951.874,52.438v10.352h3.547V64.5h-5.367V52.438H951.874z"/>
	<path fill="#EE2D2F" d="M964.491,54.148h-4.836v2.898h4.695v1.711h-4.695v4.031h4.836V64.5h-6.656V52.438h6.656V54.148z"/>
	<path fill="#EE2D2F" d="M967.148,64.5l2.539-12.969l4.141,9.375l4.289-9.375l2.281,12.969h-1.867l-1.164-7.281l-3.57,7.836
		l-3.469-7.844l-1.297,7.289H967.148z"/>
	<path fill="#EE2D2F" d="M990.461,54.227l-1.477,0.875c-0.276-0.479-0.539-0.792-0.789-0.938c-0.261-0.167-0.597-0.25-1.008-0.25
		c-0.505,0-0.925,0.144-1.258,0.43c-0.333,0.281-0.5,0.636-0.5,1.063c0,0.589,0.438,1.063,1.312,1.423l1.203,0.493
		c0.979,0.396,1.695,0.879,2.148,1.45s0.68,1.271,0.68,2.099c0,1.11-0.37,2.028-1.109,2.752c-0.745,0.73-1.669,1.095-2.773,1.095
		c-1.047,0-1.911-0.312-2.594-0.934c-0.672-0.622-1.091-1.496-1.258-2.621l1.844-0.406c0.083,0.708,0.229,1.198,0.438,1.469
		c0.375,0.521,0.922,0.781,1.641,0.781c0.567,0,1.039-0.19,1.414-0.57s0.562-0.861,0.562-1.444c0-0.234-0.032-0.449-0.098-0.644
		s-0.167-0.375-0.305-0.539c-0.138-0.164-0.316-0.318-0.535-0.46c-0.219-0.144-0.479-0.28-0.781-0.41l-1.164-0.484
		c-1.651-0.698-2.477-1.718-2.477-3.061c0-0.905,0.347-1.663,1.039-2.271c0.692-0.614,1.555-0.921,2.586-0.921
		C988.594,52.203,989.68,52.878,990.461,54.227z"/>
</g>
<g>
	<path fill="#2CA8E0" d="M536.031,667.359l3.734,5.141h-2.227l-3.445-4.938h-0.328v4.938h-1.82v-12.062h2.133
		c1.594,0,2.745,0.3,3.453,0.898c0.781,0.667,1.172,1.547,1.172,2.641c0,0.854-0.245,1.589-0.734,2.203
		C537.479,666.795,536.833,667.188,536.031,667.359z M533.766,665.977h0.578c1.724,0,2.586-0.658,2.586-1.977
		c0-1.234-0.839-1.852-2.516-1.852h-0.648V665.977z"/>
	<path fill="#2CA8E0" d="M548.923,662.148h-4.836v2.898h4.695v1.711h-4.695v4.031h4.836v1.711h-6.656v-12.062h6.656V662.148z"/>
	<path fill="#2CA8E0" d="M553.821,667.602v4.898h-1.82v-12.062h2.062c1.011,0,1.773,0.07,2.289,0.211
		c0.521,0.141,0.979,0.406,1.375,0.797c0.692,0.678,1.039,1.531,1.039,2.562c0,1.104-0.37,1.979-1.109,2.625
		c-0.739,0.646-1.737,0.969-2.992,0.969H553.821z M553.821,665.914h0.68c1.672,0,2.508-0.643,2.508-1.93
		c0-1.244-0.862-1.867-2.586-1.867h-0.602V665.914z"/>
	<path fill="#2CA8E0" d="M563.15,660.438v10.352h3.547v1.711h-5.367v-12.062H563.15z"/>
	<path fill="#2CA8E0" d="M576.869,669.57h-5.164l-1.344,2.93H568.4l5.969-12.82l5.758,12.82h-1.992L576.869,669.57z
		 M576.127,667.859l-1.789-4.102l-1.875,4.102H576.127z"/>
	<path fill="#2CA8E0" d="M583.706,667.289l-3.938-6.852h2.094l2.758,4.82l2.766-4.82h2.094l-3.953,6.852v5.211h-1.82V667.289z"/>
	<path fill="#2CA8E0" d="M597.777,660.438l3.141,8.062l3.281-8.648l3.141,8.648l3.336-8.062h1.977l-5.391,12.828l-3.102-8.547
		l-3.234,8.555l-5.125-12.836H597.777z"/>
	<path fill="#2CA8E0" d="M613.691,666.414c0-1.697,0.622-3.156,1.867-4.375c1.239-1.219,2.729-1.828,4.469-1.828
		c1.719,0,3.192,0.615,4.422,1.844c1.234,1.229,1.852,2.706,1.852,4.43c0,1.734-0.62,3.206-1.859,4.414
		c-1.245,1.214-2.747,1.82-4.508,1.82c-1.558,0-2.956-0.539-4.195-1.617C614.374,669.909,613.691,668.347,613.691,666.414z
		 M615.527,666.434c0,1.332,0.448,2.428,1.344,3.286c0.891,0.858,1.919,1.288,3.086,1.288c1.266,0,2.333-0.438,3.203-1.312
		c0.87-0.884,1.305-1.962,1.305-3.231c0-1.285-0.43-2.362-1.289-3.231c-0.854-0.874-1.911-1.312-3.172-1.312
		c-1.255,0-2.315,0.438-3.18,1.312C615.96,664.098,615.527,665.164,615.527,666.434z"/>
	<path fill="#2CA8E0" d="M633.364,667.359l3.734,5.141h-2.227l-3.445-4.938h-0.328v4.938h-1.82v-12.062h2.133
		c1.594,0,2.745,0.3,3.453,0.898c0.781,0.667,1.172,1.547,1.172,2.641c0,0.854-0.245,1.589-0.734,2.203
		C634.812,666.795,634.166,667.188,633.364,667.359z M631.099,665.977h0.578c1.724,0,2.586-0.658,2.586-1.977
		c0-1.234-0.839-1.852-2.516-1.852h-0.648V665.977z"/>
	<path fill="#2CA8E0" d="M641.419,665.25l4.695-4.812h2.43l-5.453,5.461l5.484,6.602h-2.438l-4.344-5.367l-0.375,0.375v4.992h-1.82
		v-12.062h1.82V665.25z"/>
</g>
<g>
	<path fill="#66318D" d="M112.945,581.5v-12.062h2.531c1.214,0,2.172,0.12,2.875,0.359c0.755,0.234,1.44,0.633,2.055,1.195
		c1.245,1.136,1.867,2.628,1.867,4.477c0,1.854-0.648,3.354-1.945,4.5c-0.651,0.573-1.333,0.972-2.047,1.195
		c-0.667,0.225-1.612,0.336-2.836,0.336H112.945z M114.766,579.789h0.82c0.817,0,1.497-0.086,2.039-0.258
		c0.542-0.182,1.031-0.471,1.469-0.867c0.896-0.817,1.344-1.883,1.344-3.195c0-1.322-0.442-2.396-1.328-3.219
		c-0.797-0.734-1.972-1.102-3.523-1.102h-0.82V579.789z"/>
	<path fill="#66318D" d="M131.907,571.148h-4.836v2.898h4.695v1.711h-4.695v4.031h4.836v1.711h-6.656v-12.062h6.656V571.148z"/>
	<path fill="#66318D" d="M138.313,571.148V581.5h-1.82v-10.352h-2.773v-1.711h7.359v1.711H138.313z"/>
	<path fill="#66318D" d="M150.049,571.148h-4.836v2.898h4.695v1.711h-4.695v4.031h4.836v1.711h-6.656v-12.062h6.656V571.148z"/>
	<path fill="#66318D" d="M157.213,576.359l3.734,5.141h-2.227l-3.445-4.938h-0.328v4.938h-1.82v-12.062h2.133
		c1.594,0,2.745,0.3,3.453,0.898c0.781,0.667,1.172,1.547,1.172,2.641c0,0.854-0.245,1.589-0.734,2.203
		C158.661,575.795,158.015,576.188,157.213,576.359z M154.947,574.977h0.578c1.724,0,2.586-0.658,2.586-1.977
		c0-1.234-0.839-1.852-2.516-1.852h-0.648V574.977z"/>
	<path fill="#66318D" d="M163.026,581.5l2.539-12.969l4.141,9.375l4.289-9.375l2.281,12.969h-1.867l-1.164-7.281l-3.57,7.836
		l-3.469-7.844l-1.297,7.289H163.026z"/>
	<path fill="#66318D" d="M181.339,569.438V581.5h-1.82v-12.062H181.339z"/>
	<path fill="#66318D" d="M184.926,581.5v-12.883l8.797,9.203v-8.383h1.82v12.797l-8.797-9.18v8.445H184.926z"/>
	<path fill="#66318D" d="M205.777,571.148h-4.836v2.898h4.695v1.711h-4.695v4.031h4.836v1.711h-6.656v-12.062h6.656V571.148z"/>
	<path fill="#66318D" d="M223.396,570.082v2.152c-1.052-0.88-2.141-1.32-3.266-1.32c-1.239,0-2.284,0.445-3.133,1.336
		c-0.854,0.886-1.281,1.969-1.281,3.25c0,1.266,0.427,2.334,1.281,3.203c0.854,0.87,1.901,1.305,3.141,1.305
		c0.641,0,1.185-0.104,1.633-0.312c0.25-0.104,0.509-0.244,0.777-0.422c0.269-0.177,0.551-0.391,0.848-0.641v2.199
		c-1.042,0.592-2.136,0.887-3.281,0.887c-1.724,0-3.195-0.602-4.414-1.805c-1.214-1.213-1.82-2.677-1.82-4.391
		c0-1.536,0.508-2.906,1.523-4.109c1.25-1.474,2.867-2.211,4.852-2.211C221.338,569.203,222.385,569.496,223.396,570.082z"/>
	<path fill="#66318D" d="M225.701,575.414c0-1.697,0.622-3.156,1.867-4.375c1.239-1.219,2.729-1.828,4.469-1.828
		c1.719,0,3.192,0.615,4.422,1.844c1.234,1.229,1.852,2.706,1.852,4.43c0,1.734-0.62,3.206-1.859,4.414
		c-1.245,1.214-2.747,1.82-4.508,1.82c-1.558,0-2.956-0.539-4.195-1.617C226.384,578.909,225.701,577.347,225.701,575.414z
		 M227.537,575.434c0,1.332,0.448,2.428,1.344,3.286c0.891,0.858,1.919,1.288,3.086,1.288c1.266,0,2.333-0.438,3.203-1.312
		c0.87-0.884,1.305-1.962,1.305-3.231c0-1.285-0.43-2.362-1.289-3.231c-0.854-0.874-1.911-1.312-3.172-1.312
		c-1.255,0-2.315,0.438-3.18,1.312C227.97,573.098,227.537,574.164,227.537,575.434z"/>
	<path fill="#66318D" d="M241.287,581.5v-12.883l8.797,9.203v-8.383h1.82v12.797l-8.797-9.18v8.445H241.287z"/>
	<path fill="#66318D" d="M261.507,571.148h-4.203v2.898h4.055v1.711h-4.055v5.742h-1.82v-12.062h6.023V571.148z"/>
	<path fill="#66318D" d="M266.124,569.438v7.26c0,1.036,0.169,1.793,0.508,2.272c0.505,0.692,1.216,1.038,2.133,1.038
		c0.922,0,1.636-0.346,2.141-1.038c0.339-0.464,0.508-1.221,0.508-2.272v-7.26h1.82v7.766c0,1.271-0.396,2.318-1.188,3.141
		c-0.891,0.917-1.984,1.375-3.281,1.375s-2.388-0.458-3.273-1.375c-0.792-0.822-1.188-1.869-1.188-3.141v-7.766H266.124z"/>
	<path fill="#66318D" d="M283.633,571.227l-1.477,0.875c-0.276-0.479-0.539-0.791-0.789-0.938c-0.261-0.166-0.597-0.25-1.008-0.25
		c-0.505,0-0.925,0.144-1.258,0.43c-0.333,0.281-0.5,0.637-0.5,1.063c0,0.589,0.438,1.063,1.312,1.423l1.203,0.492
		c0.979,0.396,1.695,0.88,2.148,1.451c0.453,0.57,0.68,1.27,0.68,2.099c0,1.11-0.37,2.028-1.109,2.752
		c-0.745,0.729-1.669,1.095-2.773,1.095c-1.047,0-1.911-0.312-2.594-0.934c-0.672-0.623-1.091-1.496-1.258-2.621l1.844-0.406
		c0.083,0.709,0.229,1.198,0.438,1.469c0.375,0.521,0.922,0.781,1.641,0.781c0.567,0,1.039-0.189,1.414-0.57
		c0.375-0.379,0.562-0.861,0.562-1.443c0-0.234-0.032-0.449-0.098-0.645s-0.167-0.375-0.305-0.539s-0.316-0.317-0.535-0.46
		c-0.219-0.144-0.479-0.28-0.781-0.41l-1.164-0.483c-1.651-0.698-2.477-1.719-2.477-3.061c0-0.906,0.347-1.663,1.039-2.271
		c0.692-0.615,1.555-0.922,2.586-0.922C281.766,569.203,282.852,569.878,283.633,571.227z"/>
	<path fill="#66318D" d="M288.648,569.438V581.5h-1.82v-12.062H288.648z"/>
	<path fill="#66318D" d="M291.634,575.414c0-1.697,0.622-3.156,1.867-4.375c1.239-1.219,2.729-1.828,4.469-1.828
		c1.719,0,3.192,0.615,4.422,1.844c1.234,1.229,1.852,2.706,1.852,4.43c0,1.734-0.62,3.206-1.859,4.414
		c-1.245,1.214-2.747,1.82-4.508,1.82c-1.558,0-2.956-0.539-4.195-1.617C292.316,578.909,291.634,577.347,291.634,575.414z
		 M293.47,575.434c0,1.332,0.448,2.428,1.344,3.286c0.891,0.858,1.919,1.288,3.086,1.288c1.266,0,2.333-0.438,3.203-1.312
		c0.87-0.884,1.305-1.962,1.305-3.231c0-1.285-0.43-2.362-1.289-3.231c-0.854-0.874-1.911-1.312-3.172-1.312
		c-1.255,0-2.315,0.438-3.18,1.312C293.902,573.098,293.47,574.164,293.47,575.434z"/>
	<path fill="#66318D" d="M307.22,581.5v-12.883l8.797,9.203v-8.383h1.82v12.797l-8.797-9.18v8.445H307.22z"/>
	<path fill="#66318D" d="M328.236,571.227l-1.477,0.875c-0.276-0.479-0.539-0.791-0.789-0.938c-0.261-0.166-0.597-0.25-1.008-0.25
		c-0.505,0-0.925,0.144-1.258,0.43c-0.333,0.281-0.5,0.637-0.5,1.063c0,0.589,0.438,1.063,1.312,1.423l1.203,0.492
		c0.979,0.396,1.695,0.88,2.148,1.451c0.453,0.57,0.68,1.27,0.68,2.099c0,1.11-0.37,2.028-1.109,2.752
		c-0.745,0.729-1.669,1.095-2.773,1.095c-1.047,0-1.911-0.312-2.594-0.934c-0.672-0.623-1.091-1.496-1.258-2.621l1.844-0.406
		c0.083,0.709,0.229,1.198,0.438,1.469c0.375,0.521,0.922,0.781,1.641,0.781c0.567,0,1.039-0.189,1.414-0.57
		c0.375-0.379,0.562-0.861,0.562-1.443c0-0.234-0.032-0.449-0.098-0.645s-0.167-0.375-0.305-0.539s-0.316-0.317-0.535-0.46
		c-0.219-0.144-0.479-0.28-0.781-0.41l-1.164-0.483c-1.651-0.698-2.477-1.719-2.477-3.061c0-0.906,0.347-1.663,1.039-2.271
		c0.692-0.615,1.555-0.922,2.586-0.922C326.369,569.203,327.455,569.878,328.236,571.227z"/>
</g>
<g>
	<path fill="#F17AA8" d="M147.766,284.227l-1.477,0.875c-0.276-0.479-0.539-0.792-0.789-0.938c-0.261-0.167-0.597-0.25-1.008-0.25
		c-0.505,0-0.925,0.144-1.258,0.43c-0.333,0.281-0.5,0.636-0.5,1.063c0,0.589,0.438,1.063,1.312,1.423l1.203,0.493
		c0.979,0.396,1.695,0.879,2.148,1.45s0.68,1.271,0.68,2.099c0,1.11-0.37,2.028-1.109,2.752c-0.745,0.73-1.669,1.095-2.773,1.095
		c-1.047,0-1.911-0.312-2.594-0.934c-0.672-0.622-1.091-1.496-1.258-2.621l1.844-0.406c0.083,0.708,0.229,1.198,0.438,1.469
		c0.375,0.521,0.922,0.781,1.641,0.781c0.567,0,1.039-0.19,1.414-0.57s0.562-0.861,0.562-1.444c0-0.234-0.032-0.449-0.098-0.644
		s-0.167-0.375-0.305-0.539c-0.138-0.164-0.316-0.318-0.535-0.46c-0.219-0.144-0.479-0.28-0.781-0.41l-1.164-0.484
		c-1.651-0.698-2.477-1.718-2.477-3.061c0-0.905,0.347-1.663,1.039-2.271c0.692-0.614,1.555-0.921,2.586-0.921
		C145.898,282.203,146.984,282.878,147.766,284.227z"/>
	<path fill="#F17AA8" d="M152.782,282.438v7.26c0,1.036,0.169,1.793,0.508,2.272c0.505,0.692,1.216,1.038,2.133,1.038
		c0.922,0,1.636-0.346,2.141-1.038c0.339-0.463,0.508-1.221,0.508-2.272v-7.26h1.82v7.766c0,1.271-0.396,2.318-1.188,3.141
		c-0.891,0.917-1.984,1.375-3.281,1.375s-2.388-0.458-3.273-1.375c-0.792-0.823-1.188-1.87-1.188-3.141v-7.766H152.782z"/>
	<path fill="#F17AA8" d="M169.673,288.219h4.984v0.398c0,0.906-0.106,1.708-0.32,2.406c-0.208,0.646-0.56,1.25-1.055,1.812
		c-1.12,1.261-2.544,1.891-4.273,1.891c-1.688,0-3.133-0.609-4.336-1.828c-1.203-1.224-1.805-2.692-1.805-4.406
		c0-1.75,0.612-3.234,1.836-4.453c1.224-1.224,2.714-1.836,4.469-1.836c0.942,0,1.823,0.192,2.641,0.575
		c0.781,0.384,1.55,1.007,2.305,1.87l-1.297,1.242c-0.989-1.317-2.195-1.977-3.617-1.977c-1.276,0-2.347,0.44-3.211,1.32
		c-0.864,0.865-1.297,1.948-1.297,3.25c0,1.344,0.481,2.451,1.445,3.32c0.901,0.808,1.878,1.211,2.93,1.211
		c0.896,0,1.7-0.301,2.414-0.904c0.714-0.608,1.112-1.335,1.195-2.182h-3.008V288.219z"/>
	<path fill="#F17AA8" d="M183.838,288.219h4.984v0.398c0,0.906-0.106,1.708-0.32,2.406c-0.208,0.646-0.56,1.25-1.055,1.812
		c-1.12,1.261-2.544,1.891-4.273,1.891c-1.688,0-3.133-0.609-4.336-1.828c-1.203-1.224-1.805-2.692-1.805-4.406
		c0-1.75,0.612-3.234,1.836-4.453c1.224-1.224,2.714-1.836,4.469-1.836c0.942,0,1.823,0.192,2.641,0.575
		c0.781,0.384,1.55,1.007,2.305,1.87l-1.297,1.242c-0.989-1.317-2.195-1.977-3.617-1.977c-1.276,0-2.347,0.44-3.211,1.32
		c-0.864,0.865-1.297,1.948-1.297,3.25c0,1.344,0.481,2.451,1.445,3.32c0.901,0.808,1.878,1.211,2.93,1.211
		c0.896,0,1.7-0.301,2.414-0.904c0.714-0.608,1.112-1.335,1.195-2.182h-3.008V288.219z"/>
	<path fill="#F17AA8" d="M198.455,284.148h-4.836v2.898h4.695v1.711h-4.695v4.031h4.836v1.711h-6.656v-12.062h6.656V284.148z"/>
	<path fill="#F17AA8" d="M208.354,284.227l-1.477,0.875c-0.276-0.479-0.539-0.792-0.789-0.938c-0.261-0.167-0.597-0.25-1.008-0.25
		c-0.505,0-0.925,0.144-1.258,0.43c-0.333,0.281-0.5,0.636-0.5,1.063c0,0.589,0.438,1.063,1.312,1.423l1.203,0.493
		c0.979,0.396,1.695,0.879,2.148,1.45s0.68,1.271,0.68,2.099c0,1.11-0.37,2.028-1.109,2.752c-0.745,0.73-1.669,1.095-2.773,1.095
		c-1.047,0-1.911-0.312-2.594-0.934c-0.672-0.622-1.091-1.496-1.258-2.621l1.844-0.406c0.083,0.708,0.229,1.198,0.438,1.469
		c0.375,0.521,0.922,0.781,1.641,0.781c0.567,0,1.039-0.19,1.414-0.57s0.562-0.861,0.562-1.444c0-0.234-0.032-0.449-0.098-0.644
		s-0.167-0.375-0.305-0.539c-0.138-0.164-0.316-0.318-0.535-0.46c-0.219-0.144-0.479-0.28-0.781-0.41l-1.164-0.484
		c-1.651-0.698-2.477-1.718-2.477-3.061c0-0.905,0.347-1.663,1.039-2.271c0.692-0.614,1.555-0.921,2.586-0.921
		C206.487,282.203,207.573,282.878,208.354,284.227z"/>
	<path fill="#F17AA8" d="M215.104,284.148V294.5h-1.82v-10.352h-2.773v-1.711h7.359v1.711H215.104z"/>
	<path fill="#F17AA8" d="M229.895,289.359l3.734,5.141h-2.227l-3.445-4.938h-0.328v4.938h-1.82v-12.062h2.133
		c1.594,0,2.745,0.3,3.453,0.898c0.781,0.667,1.172,1.547,1.172,2.641c0,0.854-0.245,1.589-0.734,2.203
		C231.343,288.794,230.696,289.188,229.895,289.359z M227.629,287.977h0.578c1.724,0,2.586-0.659,2.586-1.977
		c0-1.234-0.839-1.852-2.516-1.852h-0.648V287.977z"/>
	<path fill="#F17AA8" d="M242.786,284.148h-4.836v2.898h4.695v1.711h-4.695v4.031h4.836v1.711h-6.656v-12.062h6.656V284.148z"/>
	<path fill="#F17AA8" d="M252.685,284.227l-1.477,0.875c-0.276-0.479-0.539-0.792-0.789-0.938c-0.261-0.167-0.597-0.25-1.008-0.25
		c-0.505,0-0.925,0.144-1.258,0.43c-0.333,0.281-0.5,0.636-0.5,1.063c0,0.589,0.438,1.063,1.312,1.423l1.203,0.493
		c0.979,0.396,1.695,0.879,2.148,1.45s0.68,1.271,0.68,2.099c0,1.11-0.37,2.028-1.109,2.752c-0.745,0.73-1.669,1.095-2.773,1.095
		c-1.047,0-1.911-0.312-2.594-0.934c-0.672-0.622-1.091-1.496-1.258-2.621l1.844-0.406c0.083,0.708,0.229,1.198,0.438,1.469
		c0.375,0.521,0.922,0.781,1.641,0.781c0.567,0,1.039-0.19,1.414-0.57s0.562-0.861,0.562-1.444c0-0.234-0.032-0.449-0.098-0.644
		s-0.167-0.375-0.305-0.539c-0.138-0.164-0.316-0.318-0.535-0.46c-0.219-0.144-0.479-0.28-0.781-0.41l-1.164-0.484
		c-1.651-0.698-2.477-1.718-2.477-3.061c0-0.905,0.347-1.663,1.039-2.271c0.692-0.614,1.555-0.921,2.586-0.921
		C250.817,282.203,251.903,282.878,252.685,284.227z"/>
	<path fill="#F17AA8" d="M255.279,288.414c0-1.698,0.622-3.156,1.867-4.375c1.239-1.219,2.729-1.828,4.469-1.828
		c1.719,0,3.192,0.615,4.422,1.844c1.234,1.229,1.852,2.706,1.852,4.43c0,1.734-0.62,3.206-1.859,4.414
		c-1.245,1.214-2.747,1.82-4.508,1.82c-1.558,0-2.956-0.539-4.195-1.617C255.962,291.909,255.279,290.347,255.279,288.414z
		 M257.115,288.434c0,1.332,0.448,2.428,1.344,3.286c0.891,0.859,1.919,1.288,3.086,1.288c1.266,0,2.333-0.437,3.203-1.312
		c0.87-0.884,1.305-1.962,1.305-3.231c0-1.285-0.43-2.362-1.289-3.231c-0.854-0.875-1.911-1.312-3.172-1.312
		c-1.255,0-2.315,0.437-3.18,1.312C257.548,286.097,257.115,287.164,257.115,288.434z"/>
	<path fill="#F17AA8" d="M272.686,282.438v7.26c0,1.036,0.169,1.793,0.508,2.272c0.505,0.692,1.216,1.038,2.133,1.038
		c0.922,0,1.636-0.346,2.141-1.038c0.339-0.463,0.508-1.221,0.508-2.272v-7.26h1.82v7.766c0,1.271-0.396,2.318-1.188,3.141
		c-0.891,0.917-1.984,1.375-3.281,1.375s-2.388-0.458-3.273-1.375c-0.792-0.823-1.188-1.87-1.188-3.141v-7.766H272.686z"/>
	<path fill="#F17AA8" d="M287.46,289.359l3.734,5.141h-2.227l-3.445-4.938h-0.328v4.938h-1.82v-12.062h2.133
		c1.594,0,2.745,0.3,3.453,0.898c0.781,0.667,1.172,1.547,1.172,2.641c0,0.854-0.245,1.589-0.734,2.203
		C288.908,288.794,288.262,289.188,287.46,289.359z M285.194,287.977h0.578c1.724,0,2.586-0.659,2.586-1.977
		c0-1.234-0.839-1.852-2.516-1.852h-0.648V287.977z"/>
	<path fill="#F17AA8" d="M302.335,283.082v2.152c-1.052-0.88-2.141-1.32-3.266-1.32c-1.239,0-2.284,0.445-3.133,1.336
		c-0.854,0.886-1.281,1.969-1.281,3.25c0,1.266,0.427,2.333,1.281,3.203c0.854,0.87,1.901,1.305,3.141,1.305
		c0.641,0,1.185-0.104,1.633-0.312c0.25-0.104,0.509-0.245,0.777-0.422c0.269-0.177,0.551-0.391,0.848-0.641v2.199
		c-1.042,0.591-2.136,0.887-3.281,0.887c-1.724,0-3.195-0.602-4.414-1.805c-1.214-1.213-1.82-2.677-1.82-4.391
		c0-1.536,0.508-2.906,1.523-4.109c1.25-1.474,2.867-2.211,4.852-2.211C300.277,282.203,301.324,282.496,302.335,283.082z"/>
	<path fill="#F17AA8" d="M311.977,284.148h-4.836v2.898h4.695v1.711h-4.695v4.031h4.836v1.711h-6.656v-12.062h6.656V284.148z"/>
	<path fill="#F17AA8" d="M321.875,284.227l-1.477,0.875c-0.276-0.479-0.539-0.792-0.789-0.938c-0.261-0.167-0.597-0.25-1.008-0.25
		c-0.505,0-0.925,0.144-1.258,0.43c-0.333,0.281-0.5,0.636-0.5,1.063c0,0.589,0.438,1.063,1.312,1.423l1.203,0.493
		c0.979,0.396,1.695,0.879,2.148,1.45s0.68,1.271,0.68,2.099c0,1.11-0.37,2.028-1.109,2.752c-0.745,0.73-1.669,1.095-2.773,1.095
		c-1.047,0-1.911-0.312-2.594-0.934c-0.672-0.622-1.091-1.496-1.258-2.621l1.844-0.406c0.083,0.708,0.229,1.198,0.438,1.469
		c0.375,0.521,0.922,0.781,1.641,0.781c0.567,0,1.039-0.19,1.414-0.57s0.562-0.861,0.562-1.444c0-0.234-0.032-0.449-0.098-0.644
		s-0.167-0.375-0.305-0.539c-0.138-0.164-0.316-0.318-0.535-0.46c-0.219-0.144-0.479-0.28-0.781-0.41l-1.164-0.484
		c-1.651-0.698-2.477-1.718-2.477-3.061c0-0.905,0.347-1.663,1.039-2.271c0.692-0.614,1.555-0.921,2.586-0.921
		C320.008,282.203,321.094,282.878,321.875,284.227z"/>
</g>
<g>
	<path fill="#F79227" d="M1032.602,254.148h-4.836v2.898h4.695v1.711h-4.695v4.031h4.836v1.711h-6.656v-12.062h6.656V254.148z"/>
	<path fill="#F79227" d="M1038.204,258.195l-3.32-5.758h2.07l2.305,4.086l2.422-4.086h2.086l-3.477,5.758l3.648,6.305h-2.039
		l-2.672-4.617l-2.75,4.617h-2.062L1038.204,258.195z"/>
	<path fill="#F79227" d="M1053.337,261.57h-5.164l-1.344,2.93h-1.961l5.969-12.82l5.758,12.82h-1.992L1053.337,261.57z
		 M1052.595,259.859l-1.789-4.102l-1.875,4.102H1052.595z"/>
	<path fill="#F79227" d="M1058.369,264.5l2.539-12.969l4.141,9.375l4.289-9.375l2.281,12.969h-1.867l-1.164-7.281l-3.57,7.836
		l-3.469-7.844l-1.297,7.289H1058.369z"/>
	<path fill="#F79227" d="M1076.682,252.438V264.5h-1.82v-12.062H1076.682z"/>
	<path fill="#F79227" d="M1080.269,264.5v-12.883l8.797,9.203v-8.383h1.82v12.797l-8.797-9.18v8.445H1080.269z"/>
	<path fill="#F79227" d="M1101.12,254.148h-4.836v2.898h4.695v1.711h-4.695v4.031h4.836v1.711h-6.656v-12.062h6.656V254.148z"/>
	<path fill="#F79227" d="M1111.645,259.602v4.898h-1.82v-12.062h2.062c1.011,0,1.773,0.07,2.289,0.211
		c0.521,0.141,0.979,0.406,1.375,0.797c0.692,0.677,1.039,1.531,1.039,2.562c0,1.104-0.37,1.979-1.109,2.625
		c-0.739,0.646-1.737,0.969-2.992,0.969H1111.645z M1111.645,257.914h0.68c1.672,0,2.508-0.643,2.508-1.93
		c0-1.245-0.862-1.867-2.586-1.867h-0.602V257.914z"/>
	<path fill="#F79227" d="M1123.239,259.359l3.734,5.141h-2.227l-3.445-4.938h-0.328v4.938h-1.82v-12.062h2.133
		c1.594,0,2.745,0.3,3.453,0.898c0.781,0.667,1.172,1.547,1.172,2.641c0,0.854-0.245,1.589-0.734,2.203
		C1124.688,258.794,1124.041,259.188,1123.239,259.359z M1120.974,257.977h0.578c1.724,0,2.586-0.659,2.586-1.977
		c0-1.234-0.839-1.852-2.516-1.852h-0.648V257.977z"/>
	<path fill="#F79227" d="M1128.599,258.414c0-1.698,0.622-3.156,1.867-4.375c1.239-1.219,2.729-1.828,4.469-1.828
		c1.719,0,3.192,0.615,4.422,1.844c1.234,1.229,1.852,2.706,1.852,4.43c0,1.734-0.62,3.206-1.859,4.414
		c-1.245,1.214-2.747,1.82-4.508,1.82c-1.558,0-2.956-0.539-4.195-1.617C1129.281,261.909,1128.599,260.347,1128.599,258.414z
		 M1130.435,258.434c0,1.332,0.448,2.428,1.344,3.286c0.891,0.859,1.919,1.288,3.086,1.288c1.266,0,2.333-0.437,3.203-1.312
		c0.87-0.884,1.305-1.962,1.305-3.231c0-1.285-0.43-2.362-1.289-3.231c-0.854-0.875-1.911-1.312-3.172-1.312
		c-1.255,0-2.315,0.437-3.18,1.312C1130.867,256.097,1130.435,257.164,1130.435,258.434z"/>
	<path fill="#F79227" d="M1153.1,253.082v2.152c-1.052-0.88-2.141-1.32-3.266-1.32c-1.239,0-2.284,0.445-3.133,1.336
		c-0.854,0.886-1.281,1.969-1.281,3.25c0,1.266,0.427,2.333,1.281,3.203c0.854,0.87,1.901,1.305,3.141,1.305
		c0.641,0,1.185-0.104,1.633-0.312c0.25-0.104,0.509-0.245,0.777-0.422c0.269-0.177,0.551-0.391,0.848-0.641v2.199
		c-1.042,0.591-2.136,0.887-3.281,0.887c-1.724,0-3.195-0.602-4.414-1.805c-1.214-1.213-1.82-2.677-1.82-4.391
		c0-1.536,0.508-2.906,1.523-4.109c1.25-1.474,2.867-2.211,4.852-2.211C1151.042,252.203,1152.089,252.496,1153.1,253.082z"/>
	<path fill="#F79227" d="M1162.74,254.148h-4.836v2.898h4.695v1.711h-4.695v4.031h4.836v1.711h-6.656v-12.062h6.656V254.148z"/>
	<path fill="#F79227" d="M1165.819,264.5v-12.062h2.531c1.214,0,2.172,0.12,2.875,0.359c0.755,0.234,1.44,0.633,2.055,1.195
		c1.245,1.136,1.867,2.628,1.867,4.477c0,1.854-0.648,3.354-1.945,4.5c-0.651,0.573-1.333,0.972-2.047,1.195
		c-0.667,0.224-1.612,0.336-2.836,0.336H1165.819z M1167.64,262.789h0.82c0.817,0,1.497-0.086,2.039-0.258
		c0.542-0.182,1.031-0.471,1.469-0.867c0.896-0.817,1.344-1.883,1.344-3.195c0-1.323-0.442-2.396-1.328-3.219
		c-0.797-0.734-1.972-1.102-3.523-1.102h-0.82V262.789z"/>
	<path fill="#F79227" d="M1179.944,252.438v7.26c0,1.036,0.169,1.793,0.508,2.272c0.505,0.692,1.216,1.038,2.133,1.038
		c0.922,0,1.636-0.346,2.141-1.038c0.339-0.463,0.508-1.221,0.508-2.272v-7.26h1.82v7.766c0,1.271-0.396,2.318-1.188,3.141
		c-0.891,0.917-1.984,1.375-3.281,1.375s-2.388-0.458-3.273-1.375c-0.792-0.823-1.188-1.87-1.188-3.141v-7.766H1179.944z"/>
	<path fill="#F79227" d="M1194.719,259.359l3.734,5.141h-2.227l-3.445-4.938h-0.328v4.938h-1.82v-12.062h2.133
		c1.594,0,2.745,0.3,3.453,0.898c0.781,0.667,1.172,1.547,1.172,2.641c0,0.854-0.245,1.589-0.734,2.203
		C1196.167,258.794,1195.521,259.188,1194.719,259.359z M1192.453,257.977h0.578c1.724,0,2.586-0.659,2.586-1.977
		c0-1.234-0.839-1.852-2.516-1.852h-0.648V257.977z"/>
	<path fill="#F79227" d="M1208.039,261.57h-5.164l-1.344,2.93h-1.961l5.969-12.82l5.758,12.82h-1.992L1208.039,261.57z
		 M1207.297,259.859l-1.789-4.102l-1.875,4.102H1207.297z"/>
	<path fill="#F79227" d="M1215.313,252.438v10.352h3.547v1.711h-5.367v-12.062H1215.313z"/>
	<path fill="#F79227" d="M1031.969,273.349h-4.203v2.898h4.055v1.711h-4.055v5.742h-1.82v-12.062h6.023V273.349z"/>
	<path fill="#F79227" d="M1036.587,271.638v10.352h3.547v1.711h-5.367v-12.062H1036.587z"/>
	<path fill="#F79227" d="M1044.001,271.638v7.26c0,1.036,0.169,1.793,0.508,2.272c0.505,0.692,1.216,1.038,2.133,1.038
		c0.922,0,1.636-0.346,2.141-1.038c0.339-0.463,0.508-1.221,0.508-2.272v-7.26h1.82v7.766c0,1.271-0.396,2.318-1.188,3.141
		c-0.891,0.917-1.984,1.375-3.281,1.375s-2.388-0.458-3.273-1.375c-0.792-0.823-1.188-1.87-1.188-3.141v-7.766H1044.001z"/>
	<path fill="#F79227" d="M1061.346,273.349h-4.836v2.898h4.695v1.711h-4.695v4.031h4.836v1.711h-6.656v-12.062h6.656V273.349z"/>
	<path fill="#F79227" d="M1064.424,283.7v-12.883l8.797,9.203v-8.383h1.82v12.797l-8.797-9.18v8.445H1064.424z"/>
	<path fill="#F79227" d="M1087.644,272.282v2.152c-1.052-0.88-2.141-1.32-3.266-1.32c-1.239,0-2.284,0.445-3.133,1.336
		c-0.854,0.886-1.281,1.969-1.281,3.25c0,1.266,0.427,2.333,1.281,3.203c0.854,0.87,1.901,1.305,3.141,1.305
		c0.641,0,1.185-0.104,1.633-0.312c0.25-0.104,0.509-0.245,0.777-0.422c0.269-0.177,0.551-0.391,0.848-0.641v2.199
		c-1.042,0.591-2.136,0.887-3.281,0.887c-1.724,0-3.195-0.602-4.414-1.805c-1.214-1.213-1.82-2.677-1.82-4.391
		c0-1.536,0.508-2.906,1.523-4.109c1.25-1.474,2.867-2.211,4.852-2.211C1085.586,271.403,1086.633,271.696,1087.644,272.282z"/>
	<path fill="#F79227" d="M1093.065,278.489l-3.938-6.852h2.094l2.758,4.82l2.766-4.82h2.094l-3.953,6.852v5.211h-1.82V278.489z"/>
</g>
<g>
	<path fill="#8BC541" d="M1018.031,508.57h-5.164l-1.344,2.93h-1.961l5.969-12.82l5.758,12.82h-1.992L1018.031,508.57z
		 M1017.289,506.859l-1.789-4.102l-1.875,4.102H1017.289z"/>
	<path fill="#8BC541" d="M1030.306,501.227l-1.477,0.875c-0.276-0.479-0.539-0.791-0.789-0.938c-0.261-0.166-0.597-0.25-1.008-0.25
		c-0.505,0-0.925,0.144-1.258,0.43c-0.333,0.281-0.5,0.637-0.5,1.063c0,0.589,0.438,1.063,1.312,1.423l1.203,0.492
		c0.979,0.396,1.695,0.88,2.148,1.451c0.453,0.57,0.68,1.27,0.68,2.099c0,1.11-0.37,2.028-1.109,2.752
		c-0.745,0.729-1.669,1.095-2.773,1.095c-1.047,0-1.911-0.312-2.594-0.934c-0.672-0.623-1.091-1.496-1.258-2.621l1.844-0.406
		c0.083,0.709,0.229,1.198,0.438,1.469c0.375,0.521,0.922,0.781,1.641,0.781c0.567,0,1.039-0.189,1.414-0.57
		c0.375-0.379,0.562-0.861,0.562-1.443c0-0.234-0.032-0.449-0.098-0.645s-0.167-0.375-0.305-0.539s-0.316-0.317-0.535-0.46
		c-0.219-0.144-0.479-0.28-0.781-0.41l-1.164-0.483c-1.651-0.698-2.477-1.719-2.477-3.061c0-0.906,0.347-1.663,1.039-2.271
		c0.692-0.615,1.555-0.922,2.586-0.922C1028.438,499.203,1029.524,499.878,1030.306,501.227z"/>
	<path fill="#8BC541" d="M1040.321,501.227l-1.477,0.875c-0.276-0.479-0.539-0.791-0.789-0.938c-0.261-0.166-0.597-0.25-1.008-0.25
		c-0.505,0-0.925,0.144-1.258,0.43c-0.333,0.281-0.5,0.637-0.5,1.063c0,0.589,0.438,1.063,1.312,1.423l1.203,0.492
		c0.979,0.396,1.695,0.88,2.148,1.451c0.453,0.57,0.68,1.27,0.68,2.099c0,1.11-0.37,2.028-1.109,2.752
		c-0.745,0.729-1.669,1.095-2.773,1.095c-1.047,0-1.911-0.312-2.594-0.934c-0.672-0.623-1.091-1.496-1.258-2.621l1.844-0.406
		c0.083,0.709,0.229,1.198,0.438,1.469c0.375,0.521,0.922,0.781,1.641,0.781c0.567,0,1.039-0.189,1.414-0.57
		c0.375-0.379,0.562-0.861,0.562-1.443c0-0.234-0.032-0.449-0.098-0.645s-0.167-0.375-0.305-0.539s-0.316-0.317-0.535-0.46
		c-0.219-0.144-0.479-0.28-0.781-0.41l-1.164-0.483c-1.651-0.698-2.477-1.719-2.477-3.061c0-0.906,0.347-1.663,1.039-2.271
		c0.692-0.615,1.555-0.922,2.586-0.922C1038.454,499.203,1039.54,499.878,1040.321,501.227z"/>
	<path fill="#8BC541" d="M1050.174,501.148h-4.836v2.898h4.695v1.711h-4.695v4.031h4.836v1.711h-6.656v-12.062h6.656V501.148z"/>
	<path fill="#8BC541" d="M1060.072,501.227l-1.477,0.875c-0.276-0.479-0.539-0.791-0.789-0.938c-0.261-0.166-0.597-0.25-1.008-0.25
		c-0.505,0-0.925,0.144-1.258,0.43c-0.333,0.281-0.5,0.637-0.5,1.063c0,0.589,0.438,1.063,1.312,1.423l1.203,0.492
		c0.979,0.396,1.695,0.88,2.148,1.451c0.453,0.57,0.68,1.27,0.68,2.099c0,1.11-0.37,2.028-1.109,2.752
		c-0.745,0.729-1.669,1.095-2.773,1.095c-1.047,0-1.911-0.312-2.594-0.934c-0.672-0.623-1.091-1.496-1.258-2.621l1.844-0.406
		c0.083,0.709,0.229,1.198,0.438,1.469c0.375,0.521,0.922,0.781,1.641,0.781c0.567,0,1.039-0.189,1.414-0.57
		c0.375-0.379,0.562-0.861,0.562-1.443c0-0.234-0.032-0.449-0.098-0.645s-0.167-0.375-0.305-0.539s-0.316-0.317-0.535-0.46
		c-0.219-0.144-0.479-0.28-0.781-0.41l-1.164-0.483c-1.651-0.698-2.477-1.719-2.477-3.061c0-0.906,0.347-1.663,1.039-2.271
		c0.692-0.615,1.555-0.922,2.586-0.922C1058.205,499.203,1059.291,499.878,1060.072,501.227z"/>
	<path fill="#8BC541" d="M1070.089,501.227l-1.477,0.875c-0.276-0.479-0.539-0.791-0.789-0.938c-0.261-0.166-0.597-0.25-1.008-0.25
		c-0.505,0-0.925,0.144-1.258,0.43c-0.333,0.281-0.5,0.637-0.5,1.063c0,0.589,0.438,1.063,1.312,1.423l1.203,0.492
		c0.979,0.396,1.695,0.88,2.148,1.451c0.453,0.57,0.68,1.27,0.68,2.099c0,1.11-0.37,2.028-1.109,2.752
		c-0.745,0.729-1.669,1.095-2.773,1.095c-1.047,0-1.911-0.312-2.594-0.934c-0.672-0.623-1.091-1.496-1.258-2.621l1.844-0.406
		c0.083,0.709,0.229,1.198,0.438,1.469c0.375,0.521,0.922,0.781,1.641,0.781c0.567,0,1.039-0.189,1.414-0.57
		c0.375-0.379,0.562-0.861,0.562-1.443c0-0.234-0.032-0.449-0.098-0.645s-0.167-0.375-0.305-0.539s-0.316-0.317-0.535-0.46
		c-0.219-0.144-0.479-0.28-0.781-0.41l-1.164-0.483c-1.651-0.698-2.477-1.719-2.477-3.061c0-0.906,0.347-1.663,1.039-2.271
		c0.692-0.615,1.555-0.922,2.586-0.922C1068.222,499.203,1069.308,499.878,1070.089,501.227z"/>
	<path fill="#8BC541" d="M1087.824,500.082v2.152c-1.052-0.88-2.141-1.32-3.266-1.32c-1.239,0-2.284,0.445-3.133,1.336
		c-0.854,0.886-1.281,1.969-1.281,3.25c0,1.266,0.427,2.334,1.281,3.203c0.854,0.87,1.901,1.305,3.141,1.305
		c0.641,0,1.185-0.104,1.633-0.312c0.25-0.104,0.509-0.244,0.777-0.422c0.269-0.177,0.551-0.391,0.848-0.641v2.199
		c-1.042,0.592-2.136,0.887-3.281,0.887c-1.724,0-3.195-0.602-4.414-1.805c-1.214-1.213-1.82-2.677-1.82-4.391
		c0-1.536,0.508-2.906,1.523-4.109c1.25-1.474,2.867-2.211,4.852-2.211C1085.767,499.203,1086.813,499.496,1087.824,500.082z"/>
	<path fill="#8BC541" d="M1090.129,505.414c0-1.697,0.622-3.156,1.867-4.375c1.239-1.219,2.729-1.828,4.469-1.828
		c1.719,0,3.192,0.615,4.422,1.844c1.234,1.229,1.852,2.706,1.852,4.43c0,1.734-0.62,3.206-1.859,4.414
		c-1.245,1.214-2.747,1.82-4.508,1.82c-1.558,0-2.956-0.539-4.195-1.617C1090.812,508.909,1090.129,507.347,1090.129,505.414z
		 M1091.965,505.434c0,1.332,0.448,2.428,1.344,3.286c0.891,0.858,1.919,1.288,3.086,1.288c1.266,0,2.333-0.438,3.203-1.312
		c0.87-0.884,1.305-1.962,1.305-3.231c0-1.285-0.43-2.362-1.289-3.231c-0.854-0.874-1.911-1.312-3.172-1.312
		c-1.255,0-2.315,0.438-3.18,1.312C1092.397,503.098,1091.965,504.164,1091.965,505.434z"/>
	<path fill="#8BC541" d="M1105.716,511.5v-12.883l8.797,9.203v-8.383h1.82v12.797l-8.797-9.18v8.445H1105.716z"/>
	<path fill="#8BC541" d="M1128.935,500.082v2.152c-1.052-0.88-2.141-1.32-3.266-1.32c-1.239,0-2.284,0.445-3.133,1.336
		c-0.854,0.886-1.281,1.969-1.281,3.25c0,1.266,0.427,2.334,1.281,3.203c0.854,0.87,1.901,1.305,3.141,1.305
		c0.641,0,1.185-0.104,1.633-0.312c0.25-0.104,0.509-0.244,0.777-0.422c0.269-0.177,0.551-0.391,0.848-0.641v2.199
		c-1.042,0.592-2.136,0.887-3.281,0.887c-1.724,0-3.195-0.602-4.414-1.805c-1.214-1.213-1.82-2.677-1.82-4.391
		c0-1.536,0.508-2.906,1.523-4.109c1.25-1.474,2.867-2.211,4.852-2.211C1126.877,499.203,1127.924,499.496,1128.935,500.082z"/>
	<path fill="#8BC541" d="M1138.576,501.148h-4.836v2.898h4.695v1.711h-4.695v4.031h4.836v1.711h-6.656v-12.062h6.656V501.148z"/>
	<path fill="#8BC541" d="M1143.475,506.602v4.898h-1.82v-12.062h2.062c1.011,0,1.773,0.07,2.289,0.211
		c0.521,0.141,0.979,0.406,1.375,0.797c0.692,0.678,1.039,1.531,1.039,2.562c0,1.104-0.37,1.979-1.109,2.625
		c-0.739,0.646-1.737,0.969-2.992,0.969H1143.475z M1143.475,504.914h0.68c1.672,0,2.508-0.643,2.508-1.93
		c0-1.244-0.862-1.867-2.586-1.867h-0.602V504.914z"/>
	<path fill="#8BC541" d="M1154.312,501.148V511.5h-1.82v-10.352h-2.773v-1.711h7.359v1.711H1154.312z"/>
	<path fill="#8BC541" d="M1161.21,499.438v7.26c0,1.036,0.169,1.793,0.508,2.272c0.505,0.692,1.216,1.038,2.133,1.038
		c0.922,0,1.636-0.346,2.141-1.038c0.339-0.464,0.508-1.221,0.508-2.272v-7.26h1.82v7.766c0,1.271-0.396,2.318-1.188,3.141
		c-0.891,0.917-1.984,1.375-3.281,1.375s-2.388-0.458-3.273-1.375c-0.792-0.822-1.188-1.869-1.188-3.141v-7.766H1161.21z"/>
	<path fill="#8BC541" d="M1178.469,508.57h-5.164l-1.344,2.93H1170l5.969-12.82l5.758,12.82h-1.992L1178.469,508.57z
		 M1177.727,506.859l-1.789-4.102l-1.875,4.102H1177.727z"/>
	<path fill="#8BC541" d="M1185.742,499.438v10.352h3.547v1.711h-5.367v-12.062H1185.742z"/>
	<path fill="#8BC541" d="M1012.766,518.638v7.261c0,1.035,0.169,1.793,0.508,2.271c0.505,0.691,1.216,1.038,2.133,1.038
		c0.922,0,1.636-0.347,2.141-1.038c0.339-0.463,0.508-1.221,0.508-2.271v-7.261h1.82v7.766c0,1.271-0.396,2.317-1.188,3.141
		c-0.891,0.917-1.984,1.375-3.281,1.375s-2.388-0.458-3.273-1.375c-0.792-0.823-1.188-1.87-1.188-3.141v-7.766H1012.766z"/>
	<path fill="#8BC541" d="M1023.454,530.7v-12.883l8.797,9.203v-8.383h1.82v12.797l-8.797-9.18v8.445H1023.454z"/>
	<path fill="#8BC541" d="M1037.649,530.7v-12.062h2.531c1.214,0,2.172,0.12,2.875,0.359c0.755,0.234,1.44,0.633,2.055,1.195
		c1.245,1.136,1.867,2.628,1.867,4.477c0,1.854-0.648,3.354-1.945,4.5c-0.651,0.573-1.333,0.972-2.047,1.195
		c-0.667,0.224-1.612,0.336-2.836,0.336H1037.649z M1039.47,528.989h0.82c0.817,0,1.497-0.086,2.039-0.258
		c0.542-0.183,1.031-0.472,1.469-0.867c0.896-0.817,1.344-1.883,1.344-3.195c0-1.323-0.442-2.396-1.328-3.219
		c-0.797-0.734-1.972-1.102-3.523-1.102h-0.82V528.989z"/>
	<path fill="#8BC541" d="M1056.611,520.349h-4.836v2.898h4.695v1.711h-4.695v4.031h4.836v1.711h-6.656v-12.062h6.656V520.349z"/>
	<path fill="#8BC541" d="M1063.775,525.56l3.734,5.141h-2.227l-3.445-4.938h-0.328v4.938h-1.82v-12.062h2.133
		c1.594,0,2.745,0.3,3.453,0.898c0.781,0.667,1.172,1.547,1.172,2.641c0,0.854-0.245,1.589-0.734,2.203
		S1064.577,525.388,1063.775,525.56z M1061.51,524.177h0.578c1.724,0,2.586-0.659,2.586-1.977c0-1.234-0.839-1.852-2.516-1.852
		h-0.648V524.177z"/>
	<path fill="#8BC541" d="M1076.831,520.427l-1.477,0.875c-0.276-0.479-0.539-0.792-0.789-0.938c-0.261-0.167-0.597-0.25-1.008-0.25
		c-0.505,0-0.925,0.144-1.258,0.431c-0.333,0.281-0.5,0.635-0.5,1.062c0,0.589,0.438,1.063,1.312,1.423l1.203,0.493
		c0.979,0.396,1.695,0.879,2.148,1.449c0.453,0.571,0.68,1.271,0.68,2.1c0,1.11-0.37,2.027-1.109,2.752
		c-0.745,0.73-1.669,1.095-2.773,1.095c-1.047,0-1.911-0.312-2.594-0.935c-0.672-0.621-1.091-1.495-1.258-2.62l1.844-0.406
		c0.083,0.708,0.229,1.198,0.438,1.469c0.375,0.521,0.922,0.781,1.641,0.781c0.567,0,1.039-0.19,1.414-0.569
		c0.375-0.381,0.562-0.861,0.562-1.445c0-0.233-0.032-0.448-0.098-0.644s-0.167-0.375-0.305-0.538
		c-0.138-0.164-0.316-0.318-0.535-0.461c-0.219-0.144-0.479-0.28-0.781-0.41l-1.164-0.484c-1.651-0.697-2.477-1.717-2.477-3.061
		c0-0.904,0.347-1.662,1.039-2.271c0.692-0.613,1.555-0.921,2.586-0.921C1074.964,518.403,1076.05,519.078,1076.831,520.427z"/>
	<path fill="#8BC541" d="M1083.581,520.349V530.7h-1.82v-10.352h-2.773v-1.711h7.359v1.711H1083.581z"/>
	<path fill="#8BC541" d="M1095.09,527.771h-5.164l-1.344,2.93h-1.961l5.969-12.82l5.758,12.82h-1.992L1095.09,527.771z
		 M1094.348,526.06l-1.789-4.102l-1.875,4.102H1094.348z"/>
	<path fill="#8BC541" d="M1100.543,530.7v-12.883l8.797,9.203v-8.383h1.82v12.797l-8.797-9.18v8.445H1100.543z"/>
	<path fill="#8BC541" d="M1114.739,530.7v-12.062h2.531c1.214,0,2.172,0.12,2.875,0.359c0.755,0.234,1.44,0.633,2.055,1.195
		c1.245,1.136,1.867,2.628,1.867,4.477c0,1.854-0.648,3.354-1.945,4.5c-0.651,0.573-1.333,0.972-2.047,1.195
		c-0.667,0.224-1.612,0.336-2.836,0.336H1114.739z M1116.56,528.989h0.82c0.817,0,1.497-0.086,2.039-0.258
		c0.542-0.183,1.031-0.472,1.469-0.867c0.896-0.817,1.344-1.883,1.344-3.195c0-1.323-0.442-2.396-1.328-3.219
		c-0.797-0.734-1.972-1.102-3.523-1.102h-0.82V528.989z"/>
	<path fill="#8BC541" d="M1128.864,518.638V530.7h-1.82v-12.062H1128.864z"/>
	<path fill="#8BC541" d="M1132.451,530.7v-12.883l8.797,9.203v-8.383h1.82v12.797l-8.797-9.18v8.445H1132.451z"/>
	<path fill="#8BC541" d="M1152.975,524.419h4.984v0.398c0,0.906-0.106,1.708-0.32,2.406c-0.208,0.646-0.56,1.25-1.055,1.812
		c-1.12,1.261-2.544,1.891-4.273,1.891c-1.688,0-3.133-0.609-4.336-1.828c-1.203-1.224-1.805-2.692-1.805-4.406
		c0-1.75,0.612-3.234,1.836-4.453c1.224-1.224,2.714-1.836,4.469-1.836c0.942,0,1.823,0.192,2.641,0.575
		c0.781,0.384,1.55,1.008,2.305,1.87l-1.297,1.242c-0.989-1.317-2.195-1.977-3.617-1.977c-1.276,0-2.347,0.44-3.211,1.32
		c-0.864,0.864-1.297,1.948-1.297,3.25c0,1.344,0.481,2.45,1.445,3.32c0.901,0.808,1.878,1.211,2.93,1.211
		c0.896,0,1.7-0.302,2.414-0.903c0.714-0.608,1.112-1.336,1.195-2.183h-3.008V524.419z"/>
</g>
</svg>
